<svg xmlns="http://www.w3.org/2000/svg" xmlns:xlink="http://www.w3.org/1999/xlink" viewBox="0 0 948.02 610.1"><defs><linearGradient id="y" y2="431.39" xlink:href="#a" spreadMethod="reflect" gradientUnits="userSpaceOnUse" x2="2263.8" gradientTransform="matrix(-.13445 -.67961 .18581 -.03676 2431.9 2553.1)" y1="431.39" x1="2262.3"/><linearGradient id="Q" y2="239.61" gradientUnits="userSpaceOnUse" x2="199.51" gradientTransform="translate(37.46 77.362)" y1="240.83" x1="163.68"><stop offset="0" stop-color="#1a1a1a"/><stop offset="1" stop-color="#1a1a1a" stop-opacity="0"/></linearGradient><linearGradient id="S" y2="340.18" gradientUnits="userSpaceOnUse" x2="524.03" gradientTransform="translate(-266.7 -17.916)" y1="364.61" x1="524.44"><stop offset="0" stop-color="#1a1a1a"/><stop offset="1" stop-color="#1a1a1a" stop-opacity="0"/></linearGradient><linearGradient id="T" y2="278.29" gradientUnits="userSpaceOnUse" x2="528.1" gradientTransform="translate(-275.65 27.688)" y1="258.75" x1="527.69"><stop offset="0" stop-color="#fff"/><stop offset="1" stop-color="#fff" stop-opacity="0"/></linearGradient><linearGradient id="V" y2="169.71" gradientUnits="userSpaceOnUse" x2="379.47" y1="167.12" x1="485.13"><stop offset="0" stop-color="#fff"/><stop offset="1" stop-color="#fff" stop-opacity="0"/></linearGradient><linearGradient id="U" y2="205.7" gradientUnits="userSpaceOnUse" x2="532.64" gradientTransform="translate(-130.14 -10.365)" y1="188.71" x1="532.64"><stop offset="0"/><stop offset="1" stop-opacity="0"/></linearGradient><linearGradient id="d" y2="602.81" gradientUnits="userSpaceOnUse" y1="597.51" x2="622.16" x1="638.85"><stop offset="0" stop-color="#fff"/><stop offset="1" stop-color="#fff" stop-opacity="0"/></linearGradient><linearGradient id="e" y2="431.39" xlink:href="#a" spreadMethod="reflect" gradientUnits="userSpaceOnUse" x2="2263.8" gradientTransform="matrix(.67961 -.13445 .03676 .18581 737.79 1096.9)" y1="431.39" x1="2262.3"/><linearGradient id="a"><stop offset="0" stop-color="#555753"/><stop offset="1" stop-color="#91938e"/></linearGradient><linearGradient id="f" y2="431.39" xlink:href="#a" spreadMethod="reflect" gradientUnits="userSpaceOnUse" x2="2263.8" gradientTransform="matrix(-.67961 .13445 -.03676 -.18581 3888.1 858.95)" y1="431.39" x1="2262.3"/><linearGradient id="g" y2="431.39" xlink:href="#a" spreadMethod="reflect" gradientUnits="userSpaceOnUse" x2="2263.8" gradientTransform="matrix(.13445 .67961 -.18581 .03676 2194 -597.23)" y1="431.39" x1="2262.3"/><linearGradient id="h" y2="431.39" xlink:href="#a" spreadMethod="reflect" gradientUnits="userSpaceOnUse" x2="2263.8" gradientTransform="matrix(.69278 0 0 .18941 744.65 788.94)" y1="431.39" x1="2262.3"/><linearGradient id="i" y2="431.39" xlink:href="#a" spreadMethod="reflect" gradientUnits="userSpaceOnUse" x2="2263.8" gradientTransform="matrix(.59996 .34639 -.0947 .16403 1049.2 30.117)" y1="431.39" x1="2262.3"/><linearGradient id="j" y2="431.39" xlink:href="#a" spreadMethod="reflect" gradientUnits="userSpaceOnUse" x2="2263.8" gradientTransform="matrix(.34639 .59996 -.16403 .0947 1692.5 -474.75)" y1="431.39" x1="2262.3"/><linearGradient id="k" y2="431.39" xlink:href="#a" spreadMethod="reflect" gradientUnits="userSpaceOnUse" x2="2263.8" gradientTransform="matrix(0 .69278 -.18941 0 2501.9 -590.37)" y1="431.39" x1="2262.3"/><linearGradient id="l" y2="431.39" xlink:href="#a" spreadMethod="reflect" gradientUnits="userSpaceOnUse" x2="2263.8" gradientTransform="matrix(-.34639 .59996 -.16403 -.0947 3260.7 -285.77)" y1="431.39" x1="2262.3"/><linearGradient id="m" y2="431.39" xlink:href="#a" spreadMethod="reflect" gradientUnits="userSpaceOnUse" x2="2263.8" gradientTransform="matrix(-.59996 .34639 -.0947 -.16403 3765.6 357.44)" y1="431.39" x1="2262.3"/><linearGradient id="n" y2="431.39" xlink:href="#a" spreadMethod="reflect" gradientUnits="userSpaceOnUse" x2="2263.8" gradientTransform="matrix(-.59996 -.34639 .0947 -.16403 3576.6 1925.7)" y1="431.39" x1="2262.3"/><linearGradient id="o" y2="431.39" xlink:href="#a" spreadMethod="reflect" gradientUnits="userSpaceOnUse" x2="2263.8" gradientTransform="matrix(-.34639 -.59996 .16403 -.0947 2933.4 2430.6)" y1="431.39" x1="2262.3"/><linearGradient id="p" y2="431.39" xlink:href="#a" spreadMethod="reflect" gradientUnits="userSpaceOnUse" x2="2263.8" gradientTransform="matrix(0 -.69278 .18941 0 2124 2546.2)" y1="431.39" x1="2262.3"/><linearGradient id="q" y2="431.39" xlink:href="#a" spreadMethod="reflect" gradientUnits="userSpaceOnUse" x2="2263.8" gradientTransform="matrix(.34639 -.59996 .16403 .0947 1365.1 2241.6)" y1="431.39" x1="2262.3"/><linearGradient id="r" y2="431.39" xlink:href="#a" spreadMethod="reflect" gradientUnits="userSpaceOnUse" x2="2263.8" gradientTransform="matrix(.59996 -.34639 .0947 .16403 860.27 1598.4)" y1="431.39" x1="2262.3"/><linearGradient id="s" y2="431.39" xlink:href="#a" spreadMethod="reflect" gradientUnits="userSpaceOnUse" x2="2263.8" gradientTransform="matrix(.65578 .22337 -.06107 .17929 889.34 293.38)" y1="431.39" x1="2262.3"/><linearGradient id="t" y2="431.39" xlink:href="#a" spreadMethod="reflect" gradientUnits="userSpaceOnUse" x2="2263.8" gradientTransform="matrix(.45624 .52134 -.14254 .12474 1422.3 -326.71)" y1="431.39" x1="2262.3"/><linearGradient id="u" y2="431.39" xlink:href="#a" spreadMethod="reflect" gradientUnits="userSpaceOnUse" x2="2263.8" gradientTransform="matrix(-.22337 .65578 -.17929 -.06107 2997.5 -445.68)" y1="431.39" x1="2262.3"/><linearGradient id="v" y2="431.39" xlink:href="#a" spreadMethod="reflect" gradientUnits="userSpaceOnUse" x2="2263.8" gradientTransform="matrix(-.52134 .45624 -.12474 -.14254 3617.6 87.318)" y1="431.39" x1="2262.3"/><linearGradient id="w" y2="431.39" xlink:href="#a" spreadMethod="reflect" gradientUnits="userSpaceOnUse" x2="2263.8" gradientTransform="matrix(-.65578 -.22337 .06107 -.17929 3736.5 1662.5)" y1="431.39" x1="2262.3"/><linearGradient id="x" y2="431.39" xlink:href="#a" spreadMethod="reflect" gradientUnits="userSpaceOnUse" x2="2263.8" gradientTransform="matrix(-.45624 -.52134 .14254 -.12474 3203.5 2282.6)" y1="431.39" x1="2262.3"/><linearGradient id="R" y2="242.05" gradientUnits="userSpaceOnUse" x2="313.93" gradientTransform="translate(-45.603 70.033)" y1="244.5" x1="352.61"><stop offset="0" stop-color="#1a1a1a"/><stop offset="1" stop-color="#1a1a1a" stop-opacity="0"/></linearGradient><linearGradient id="z" y2="431.39" xlink:href="#a" spreadMethod="reflect" gradientUnits="userSpaceOnUse" x2="2263.8" gradientTransform="matrix(.22337 -.65578 .17929 .06107 1628.4 2401.5)" y1="431.39" x1="2262.3"/><linearGradient id="A" y2="431.39" xlink:href="#a" spreadMethod="reflect" gradientUnits="userSpaceOnUse" x2="2263.8" gradientTransform="matrix(.52134 -.45624 .12474 .14254 1008.3 1868.5)" y1="431.39" x1="2262.3"/><linearGradient id="B" y2="431.39" xlink:href="#a" spreadMethod="reflect" gradientUnits="userSpaceOnUse" x2="2263.8" gradientTransform="matrix(-.69278 0 0 -.18941 3881.2 1166.9)" y1="431.39" x1="2262.3"/><linearGradient id="G" y2="210.5" gradientUnits="userSpaceOnUse" x2="735.55" y1="207.24" x1="733.32"><stop offset="0" stop-color="#fff"/><stop offset="1" stop-color="#fff" stop-opacity="0"/></linearGradient><linearGradient id="H" y2="120.76" gradientUnits="userSpaceOnUse" x2="548.47" gradientTransform="translate(147.41 16.411)" y1="129.98" x1="550.49"><stop offset="0"/><stop offset="1" stop-opacity="0"/></linearGradient><linearGradient id="I" y2="354.84" gradientUnits="userSpaceOnUse" x2="772" y1="194.41" x1="712.55"><stop offset="0" stop-color="#fff"/><stop offset="1" stop-color="#fff" stop-opacity="0"/></linearGradient><linearGradient id="ae" y2="187.08" gradientUnits="userSpaceOnUse" x2="691.58" y1="183.62" x1="699.52"><stop offset="0" stop-color="#fff"/><stop offset="1" stop-color="#fff" stop-opacity="0"/></linearGradient><linearGradient id="ac" y2="99.136" gradientUnits="userSpaceOnUse" x2="692.39" y1="79.999" x1="707.87"><stop offset="0" stop-color="#fff"/><stop offset="1" stop-color="#fff" stop-opacity="0"/></linearGradient><linearGradient id="ab" y2="180.16" gradientUnits="userSpaceOnUse" x2="772.2" y1="169.78" x1="775.05"><stop offset="0" stop-color="#fff"/><stop offset="1" stop-color="#fff" stop-opacity="0"/></linearGradient><linearGradient id="aa" y2="374.38" gradientUnits="userSpaceOnUse" x2="446.26" y1="370.72" x1="458.07"><stop offset="0" stop-color="#fff"/><stop offset="1" stop-color="#fff" stop-opacity="0"/></linearGradient><linearGradient id="Z" y2="395.15" gradientUnits="userSpaceOnUse" x2="620.12" y1="387.82" x1="612.39"><stop offset="0" stop-color="#fff"/><stop offset="1" stop-color="#fff" stop-opacity="0"/></linearGradient><linearGradient id="Y" y2="244.56" gradientUnits="userSpaceOnUse" x2="559.13" y1="232.18" x1="558.84"><stop offset="0" stop-color="#fff"/><stop offset="1" stop-color="#fff" stop-opacity="0"/></linearGradient><linearGradient id="X" y2="529.11" gradientUnits="userSpaceOnUse" x2="527.69" y1="497.35" x1="574.11"><stop offset="0" stop-color="#fff"/><stop offset="1" stop-color="#fff" stop-opacity="0"/></linearGradient><linearGradient id="W" y2="292.13" gradientUnits="userSpaceOnUse" x2="727.21" y1="286.43" x1="743.49"><stop offset="0" stop-color="#fff"/><stop offset="1" stop-color="#fff" stop-opacity="0"/></linearGradient><linearGradient id="P" y2="200.23" gradientUnits="userSpaceOnUse" x2="588.78" gradientTransform="translate(106.53 -1.152)" y1="201.95" x1="583.89"><stop offset="0" stop-color="#1a1a1a"/><stop offset="1" stop-color="#1a1a1a" stop-opacity="0"/></linearGradient><linearGradient id="O" y2="157.9" gradientUnits="userSpaceOnUse" x2="558.26" gradientTransform="translate(141.37 -25.912)" y1="172.59" x1="571.8"><stop offset="0" stop-color="#1a1a1a"/><stop offset="1" stop-color="#1a1a1a" stop-opacity="0"/></linearGradient><linearGradient id="N" y2="89.667" gradientUnits="userSpaceOnUse" x2="556.25" gradientTransform="translate(114.01 7.198)" y1="96.001" x1="557.98"><stop offset="0"/><stop offset="1" stop-opacity="0"/></linearGradient><linearGradient id="M" y2="149.27" gradientUnits="userSpaceOnUse" x2="883.32" gradientTransform="translate(-120.92 31.095)" y1="168.27" x1="878.14"><stop offset="0"/><stop offset="1" stop-opacity="0"/></linearGradient><linearGradient id="L" y2="410.21" gradientUnits="userSpaceOnUse" x2="404.73" y1="394.74" x1="429.16"><stop offset="0" stop-color="#fff"/><stop offset="1" stop-color="#fff" stop-opacity="0"/></linearGradient><linearGradient id="K" y2="219.86" gradientUnits="userSpaceOnUse" x2="704.81" y1="215.18" x1="715.81"><stop offset="0" stop-color="#fff"/><stop offset="1" stop-color="#fff" stop-opacity="0"/></linearGradient><linearGradient id="J" y2="208.86" gradientUnits="userSpaceOnUse" x2="593.39" gradientTransform="translate(113.44 12.668)" y1="214.91" x1="582.45"><stop offset="0" stop-color="#1a1a1a"/><stop offset="1" stop-color="#1a1a1a" stop-opacity="0"/></linearGradient><linearGradient id="ad" y2="602.81" xlink:href="#d" gradientUnits="userSpaceOnUse" x2="622.16" y1="597.51" x1="638.85"/><radialGradient id="c" gradientUnits="userSpaceOnUse" cy="882.66" cx="2226.4" gradientTransform="matrix(.7637 0 0 .73563 526.09 233.35)" r="133.34"><stop offset="0" stop-color="#2e3436"/><stop offset=".821" stop-color="#505a5e"/><stop offset="1" stop-color="#2e3436"/></radialGradient><radialGradient id="b" gradientUnits="userSpaceOnUse" cy="977.92" cx="2312.9" gradientTransform="matrix(.18225 0 0 .18278 1891.4 799.18)" r="1151.6"><stop offset="0" stop-color="#555753"/><stop offset=".964" stop-color="#7e807c"/><stop offset="1" stop-color="#a8aaa6"/></radialGradient><radialGradient id="D" xlink:href="#b" gradientUnits="userSpaceOnUse" cy="977.92" cx="2312.9" gradientTransform="matrix(.18225 0 0 .18278 1891.4 799.18)" r="1151.6"/><radialGradient id="E" xlink:href="#c" gradientUnits="userSpaceOnUse" cy="882.66" cx="2226.4" gradientTransform="matrix(.7637 0 0 .73563 526.09 233.35)" r="133.34"/><filter id="F" color-interpolation-filters="sRGB"><feGaussianBlur stdDeviation="27.212"/></filter><filter id="C" color-interpolation-filters="sRGB"><feGaussianBlur stdDeviation="27.212"/></filter></defs><path d="M2270.3 767.66l41.634 210.46 1.975-.39-41.634-210.46-1.975.39z" fill="url(#e)" fill-rule="evenodd" transform="matrix(.77935 0 0 .8158 -1616.166 -385.296)"/><path d="M2355.6 1188.2l-41.634-210.46-1.975.39 41.635 210.46 1.975-.39z" fill="url(#f)" fill-rule="evenodd" transform="matrix(.77935 0 0 .8158 -1616.166 -385.296)"/><path d="M2523.2 935.3l-210.46 41.635.39 1.975 210.46-41.635-.4-1.98z" fill="url(#g)" fill-rule="evenodd" transform="matrix(.77935 0 0 .8158 -1616.166 -385.296)"/><path d="M2311.9 763.39v214.54h2.014V763.39h-2z" fill="url(#h)" fill-rule="evenodd" transform="matrix(.77935 0 0 .8158 -1616.166 -385.296)"/><path d="M2419.3 791.62l-107.27 185.79 1.744 1.007 107.27-185.79-1.744-1.007z" fill="url(#i)" fill-rule="evenodd" transform="matrix(.77935 0 0 .8158 -1616.166 -385.296)"/><path d="M2498.2 869.78l-185.79 107.27 1.007 1.744 185.79-107.27-1.007-1.744z" fill="url(#j)" fill-rule="evenodd" transform="matrix(.77935 0 0 .8158 -1616.166 -385.296)"/><path d="M2527.5 976.92h-214.54v2.013h214.54v-2.013z" fill="url(#k)" fill-rule="evenodd" transform="matrix(.77935 0 0 .8158 -1616.166 -385.296)"/><path d="M2499.2 1084.3l-185.79-107.27-1.007 1.744 185.79 107.27 1.007-1.744z" fill="url(#l)" fill-rule="evenodd" transform="matrix(.77935 0 0 .8158 -1616.166 -385.296)"/><path d="M2421.1 1163.2l-107.27-185.79-1.744 1.007 107.27 185.79 1.744-1.007z" fill="url(#m)" fill-rule="evenodd" transform="matrix(.77935 0 0 .8158 -1616.166 -385.296)"/><path d="M2206.5 1164.2l107.27-185.79-1.744-1.007-107.27 185.79 1.744 1.007z" fill="url(#n)" fill-rule="evenodd" transform="matrix(.77935 0 0 .8158 -1616.166 -385.296)"/><path d="M2127.6 1086.1l185.79-107.27-1.007-1.744-185.79 107.27 1.007 1.744z" fill="url(#o)" fill-rule="evenodd" transform="matrix(.77935 0 0 .8158 -1616.166 -385.296)"/><path d="M2098.4 978.93h214.54v-2.013H2098.4v2.013z" fill="url(#p)" fill-rule="evenodd" transform="matrix(.77935 0 0 .8158 -1616.166 -385.296)"/><path d="M2126.6 871.53l185.79 107.27 1.007-1.744-185.79-107.27-1.007 1.744z" fill="url(#q)" fill-rule="evenodd" transform="matrix(.77935 0 0 .8158 -1616.166 -385.296)"/><path d="M2204.8 792.63l107.27 185.79 1.744-1.007-107.27-185.79-1.744 1.007z" fill="url(#r)" fill-rule="evenodd" transform="matrix(.77935 0 0 .8158 -1616.166 -385.296)"/><path d="M2381.2 774.52l-69.172 203.08 1.906.65 69.172-203.08-1.906-.65z" fill="url(#s)" fill-rule="evenodd" transform="matrix(.77935 0 0 .8158 -1616.166 -385.296)"/><path d="M2473.7 835.88l-161.44 141.29 1.326 1.515 161.44-141.29-1.326-1.515z" fill="url(#t)" fill-rule="evenodd" transform="matrix(.77935 0 0 .8158 -1616.166 -385.296)"/><path d="M2516.3 1046.1l-203.08-69.172-.65 1.906 203.08 69.172.65-1.906z" fill="url(#u)" fill-rule="evenodd" transform="matrix(.77935 0 0 .8158 -1616.166 -385.296)"/><path d="M2455 1138.7l-141.29-161.44-1.515 1.326 141.29 161.44 1.515-1.326z" fill="url(#v)" fill-rule="evenodd" transform="matrix(.77935 0 0 .8158 -1616.166 -385.296)"/><path d="M2244.7 1181.3l69.172-203.08-1.906-.65-69.172 203.08 1.906.65z" fill="url(#w)" fill-rule="evenodd" transform="matrix(.77935 0 0 .8158 -1616.166 -385.296)"/><path d="M2152.2 1120l161.44-141.29-1.326-1.515-161.44 141.29 1.326 1.515z" fill="url(#x)" fill-rule="evenodd" transform="matrix(.77935 0 0 .8158 -1616.166 -385.296)"/><path d="M2102.7 1020.5l210.46-41.635-.39-1.975-210.46 41.635.39 1.975z" fill="url(#y)" fill-rule="evenodd" transform="matrix(.77935 0 0 .8158 -1616.166 -385.296)"/><path d="M2109.5 909.7l203.08 69.172.65-1.906-203.08-69.172-.65 1.906z" fill="url(#z)" fill-rule="evenodd" transform="matrix(.77935 0 0 .8158 -1616.166 -385.296)"/><path d="M2170.9 817.14l141.29 161.44 1.515-1.326-141.29-161.44-1.515 1.326z" fill="url(#A)" fill-rule="evenodd" transform="matrix(.77935 0 0 .8158 -1616.166 -385.296)"/><path d="M2313.9 1192.5V977.96h-2.013v214.54h2.013z" fill="url(#B)" fill-rule="evenodd" transform="matrix(.77935 0 0 .8158 -1616.166 -385.296)"/><path d="M2312.9 743.02c-129.66 0-234.9 105.23-234.9 234.9 0 129.66 105.23 234.9 234.9 234.9 129.66 0 234.9-105.24 234.9-234.9s-105.23-234.9-234.9-234.9zm0 16.781c120.4 0 218.12 97.715 218.12 218.12s-97.716 218.12-218.12 218.12-218.12-97.722-218.12-218.12 97.715-218.12 218.12-218.12z" stroke-linejoin="round" stroke="#2e3436" stroke-linecap="round" stroke-dasharray="15.15281864,3.78820466" stroke-width="3.788" fill="#2e3436" transform="matrix(.77935 0 0 .8158 -1616.166 -385.296)"/><path transform="matrix(.14762 0 0 .15452 -155.04 261.38)" d="M2312.9-219.41c-660.91 0-1197.3 536.4-1197.3 1197.3 0 660.91 536.4 1197.3 1197.3 1197.3 660.91 0 1197.3-536.43 1197.3-1197.3 0-660.91-536.4-1197.3-1197.3-1197.3zm0 45.75c635.67 0 1151.6 515.89 1151.6 1151.6 0 635.66-515.9 1151.6-1151.6 1151.6-635.6 0-1151.5-515.9-1151.5-1151.6 0-635.67 515.89-1151.6 1151.6-1151.6z" opacity=".165" filter="url(#C)" fill="#eeeeec"/><path d="M2312.9 759.8c-120.4 0-218.12 97.715-218.12 218.12s97.715 218.12 218.12 218.12 218.12-97.721 218.12-218.12-97.716-218.12-218.12-218.12zm0 16.781c111.14 0 201.34 90.197 201.34 201.34s-90.202 201.34-201.34 201.34-201.34-90.202-201.34-201.34 90.202-201.34 201.34-201.34z" fill="url(#D)" transform="matrix(.77935 0 0 .8158 -1616.166 -385.296)"/><path d="M2359.7 882.66c0 73.642-59.698 133.34-133.34 133.34s-133.34-59.698-133.34-133.34 59.698-133.34 133.34-133.34 133.34 59.698 133.34 133.34z" transform="matrix(.13729 0 0 .14371 -119.268 285.642)" fill="url(#E)"/><path d="M197.44 412.49c0 6.36-4.925 11.515-11 11.515s-11-5.155-11-11.514 4.924-11.514 11-11.514 11 5.155 11 11.514z" fill="#2e3436"/><path d="M2270.3 767.66l41.634 210.46 1.975-.39-41.634-210.46-1.975.39z" fill-rule="evenodd" fill="url(#e)" transform="matrix(.79481 0 0 .82267 -1080.366 -391.146)"/><path d="M2355.6 1188.2l-41.634-210.46-1.975.39 41.635 210.46 1.975-.39z" fill-rule="evenodd" fill="url(#f)" transform="matrix(.79481 0 0 .82267 -1080.366 -391.146)"/><path d="M2523.2 935.3l-210.46 41.635.39 1.975 210.46-41.635-.4-1.98z" fill-rule="evenodd" fill="url(#g)" transform="matrix(.79481 0 0 .82267 -1080.366 -391.146)"/><path d="M2311.9 763.39v214.54h2.014V763.39h-2z" fill-rule="evenodd" fill="url(#h)" transform="matrix(.79481 0 0 .82267 -1080.366 -391.146)"/><path d="M2419.3 791.62l-107.27 185.79 1.744 1.007 107.27-185.79-1.744-1.007z" fill-rule="evenodd" fill="url(#i)" transform="matrix(.79481 0 0 .82267 -1080.366 -391.146)"/><path d="M2498.2 869.78l-185.79 107.27 1.007 1.744 185.79-107.27-1.007-1.744z" fill-rule="evenodd" fill="url(#j)" transform="matrix(.79481 0 0 .82267 -1080.366 -391.146)"/><path d="M2527.5 976.92h-214.54v2.013h214.54v-2.013z" fill-rule="evenodd" fill="url(#k)" transform="matrix(.79481 0 0 .82267 -1080.366 -391.146)"/><path d="M2499.2 1084.3l-185.79-107.27-1.007 1.744 185.79 107.27 1.007-1.744z" fill-rule="evenodd" fill="url(#l)" transform="matrix(.79481 0 0 .82267 -1080.366 -391.146)"/><path d="M2421.1 1163.2l-107.27-185.79-1.744 1.007 107.27 185.79 1.744-1.007z" fill-rule="evenodd" fill="url(#m)" transform="matrix(.79481 0 0 .82267 -1080.366 -391.146)"/><path d="M2206.5 1164.2l107.27-185.79-1.744-1.007-107.27 185.79 1.744 1.007z" fill-rule="evenodd" fill="url(#n)" transform="matrix(.79481 0 0 .82267 -1080.366 -391.146)"/><path d="M2127.6 1086.1l185.79-107.27-1.007-1.744-185.79 107.27 1.007 1.744z" fill-rule="evenodd" fill="url(#o)" transform="matrix(.79481 0 0 .82267 -1080.366 -391.146)"/><path d="M2098.4 978.93h214.54v-2.013H2098.4v2.013z" fill-rule="evenodd" fill="url(#p)" transform="matrix(.79481 0 0 .82267 -1080.366 -391.146)"/><path d="M2126.6 871.53l185.79 107.27 1.007-1.744-185.79-107.27-1.007 1.744z" fill-rule="evenodd" fill="url(#q)" transform="matrix(.79481 0 0 .82267 -1080.366 -391.146)"/><path d="M2204.8 792.63l107.27 185.79 1.744-1.007-107.27-185.79-1.744 1.007z" fill-rule="evenodd" fill="url(#r)" transform="matrix(.79481 0 0 .82267 -1080.366 -391.146)"/><path d="M2381.2 774.52l-69.172 203.08 1.906.65 69.172-203.08-1.906-.65z" fill-rule="evenodd" fill="url(#s)" transform="matrix(.79481 0 0 .82267 -1080.366 -391.146)"/><path d="M2473.7 835.88l-161.44 141.29 1.326 1.515 161.44-141.29-1.326-1.515z" fill-rule="evenodd" fill="url(#t)" transform="matrix(.79481 0 0 .82267 -1080.366 -391.146)"/><path d="M2516.3 1046.1l-203.08-69.172-.65 1.906 203.08 69.172.65-1.906z" fill-rule="evenodd" fill="url(#u)" transform="matrix(.79481 0 0 .82267 -1080.366 -391.146)"/><path d="M2455 1138.7l-141.29-161.44-1.515 1.326 141.29 161.44 1.515-1.326z" fill-rule="evenodd" fill="url(#v)" transform="matrix(.79481 0 0 .82267 -1080.366 -391.146)"/><path d="M2244.7 1181.3l69.172-203.08-1.906-.65-69.172 203.08 1.906.65z" fill-rule="evenodd" fill="url(#w)" transform="matrix(.79481 0 0 .82267 -1080.366 -391.146)"/><path d="M2152.2 1120l161.44-141.29-1.326-1.515-161.44 141.29 1.326 1.515z" fill-rule="evenodd" fill="url(#x)" transform="matrix(.79481 0 0 .82267 -1080.366 -391.146)"/><path d="M2102.7 1020.5l210.46-41.635-.39-1.975-210.46 41.635.39 1.975z" fill-rule="evenodd" fill="url(#y)" transform="matrix(.79481 0 0 .82267 -1080.366 -391.146)"/><path d="M2109.5 909.7l203.08 69.172.65-1.906-203.08-69.172-.65 1.906z" fill-rule="evenodd" fill="url(#z)" transform="matrix(.79481 0 0 .82267 -1080.366 -391.146)"/><path d="M2170.9 817.14l141.29 161.44 1.515-1.326-141.29-161.44-1.515 1.326z" fill-rule="evenodd" fill="url(#A)" transform="matrix(.79481 0 0 .82267 -1080.366 -391.146)"/><path d="M2313.9 1192.5V977.96h-2.013v214.54h2.013z" fill-rule="evenodd" fill="url(#B)" transform="matrix(.79481 0 0 .82267 -1080.366 -391.146)"/><path d="M2312.9 743.02c-129.66 0-234.9 105.23-234.9 234.9 0 129.66 105.23 234.9 234.9 234.9 129.66 0 234.9-105.24 234.9-234.9s-105.23-234.9-234.9-234.9zm0 16.781c120.4 0 218.12 97.715 218.12 218.12s-97.716 218.12-218.12 218.12-218.12-97.722-218.12-218.12 97.715-218.12 218.12-218.12z" stroke-linejoin="round" stroke="#2e3436" stroke-linecap="round" stroke-dasharray="15.15281864,3.78820466" stroke-width="3.788" fill="#2e3436" transform="matrix(.79481 0 0 .82267 -1080.366 -391.146)"/><path transform="matrix(.15054 0 0 .15582 409.744 260.976)" d="M2312.9-219.41c-660.91 0-1197.3 536.4-1197.3 1197.3 0 660.91 536.4 1197.3 1197.3 1197.3 660.91 0 1197.3-536.43 1197.3-1197.3 0-660.91-536.4-1197.3-1197.3-1197.3zm0 45.75c635.67 0 1151.6 515.89 1151.6 1151.6 0 635.66-515.9 1151.6-1151.6 1151.6-635.6 0-1151.5-515.9-1151.5-1151.6 0-635.67 515.89-1151.6 1151.6-1151.6z" opacity=".165" filter="url(#F)" fill="#eeeeec"/><path d="M2312.9 759.8c-120.4 0-218.12 97.715-218.12 218.12s97.715 218.12 218.12 218.12 218.12-97.721 218.12-218.12-97.716-218.12-218.12-218.12zm0 16.781c111.14 0 201.34 90.197 201.34 201.34s-90.202 201.34-201.34 201.34-201.34-90.202-201.34-201.34 90.202-201.34 201.34-201.34z" fill="url(#D)" transform="matrix(.79481 0 0 .82267 -1080.366 -391.146)"/><path d="M2359.7 882.66c0 73.642-59.698 133.34-133.34 133.34s-133.34-59.698-133.34-133.34 59.698-133.34 133.34-133.34 133.34 59.698 133.34 133.34z" transform="matrix(.14001 0 0 .14492 446.226 285.442)" fill="url(#E)"/><path d="M769.216 413.36c0 6.412-5.023 11.61-11.218 11.61s-11.218-5.198-11.218-11.61 5.022-11.612 11.218-11.612 11.218 5.198 11.218 11.611z" fill="#2e3436"/><path d="M339.104 183.654l-142.51 232.09-3.26-3.26 141.7-232.09zM795.134 226.814c-43.245-11.522-172.17 5.685-210.13 140.17-.37 1.313-.719 2.647-1.048 4-7.736 31.874-4.007 75.145 17.37 135.96.405 7.273-3.148 9.796-8.144 10.587-24.098-46.757-32.235-82.815-29.354-111.49.11-1.09.32-2.161.376-3.237 7.672-147.97 167.44-215.31 239.89-187.4-.547 5.02-1.978 9.597-8.958 11.4z" fill="#500"/><path d="M15.404 364.444l-12.215 3.664c21.104-60.385 43.26-96.08 66.167-114.16 1.206-.95 2.39-1.888 3.623-2.708 43.018-28.602 78.98-40.614 109.37-41.085 1.917-.03 3.816-.085 5.685.047 180.29 12.778 191.63 184.87 184.87 224.27l-13.844-7.329c7.47-41.392-18.268-145.79-102.8-185.59-1.268-.597-2.375-1.49-3.585-2.201-39.08-22.991-94.142-22.861-174.33 27.126-1.066.665-2.024 1.522-3.034 2.334-20.408 16.392-40.423 46.59-59.901 95.627z" fill="#500"/><path d="M47.164 254.504c4.069 4.13 7.432 8.361 7.736 13.029l-22.394 31.759c-2.903.694-7.943-1.467-10.586-2.85z" fill="none"/><path d="M47.164 254.094l-24.837 41.939c-1.493.238-2.986.532-4.479-.814l10.18-43.567c7.041.068 14.201.004 19.136 2.443z" fill="none"/><path d="M158.724 249.614l8.143 121.74c3.355 5.584 7.117 10.251 12.622 10.994l-1.628 18.73 10.179.814-1.629-19.95c5.997-1.156 8.551-5.18 11.401-8.958l19.544-120.12-6.515-.408-17.916 119.71c-2.66 2.184-4.666 5.351-9.365 4.48-6.786.452-7.581-3.09-9.772-5.701l-8.958-121.74z" fill="#500"/><path d="M169.314 250.834l11.808 121.34c2.268 4.518 5.607 7.965 10.586 9.772l.814 17.101 7.737.407-.408-15.472c5.019-1.544 8.816-5.123 12.215-9.365l13.437-122.15h-5.7l-13.437 117.67c-1.68 4.314-4.703 6.948-8.55 8.551-4.652-2.149-10.085-3.809-10.587-8.55l-12.622-120.12zM411.984 455.234l-232.09-45.603-2.036 9.365 232.9 46.418z" fill="#500"/><path d="M469.804 489.444l-3.257.814v5.7l-4.48.408v4.479l-4.478.407-1.222 4.886-4.886.814-1.221 2.85-4.48.815-2.035 4.072-3.257-.815-2.85 2.443-2.85-1.221-4.48 2.85-3.257-2.036-5.7 2.443-2.036-2.036-5.7 1.629-.815-2.443-6.922.814-.814-2.85h-6.108l-.814-2.443-4.072 1.222-1.222-3.258-6.107-.407-.407-2.036-5.7-.407-.815-1.221-6.515-.408v-2.443l-6.107-.407-.815-1.629-4.886.408-2.036-2.85-4.886.407-1.628-2.443-4.886.814-1.222-2.443h-4.886l-1.628-2.036-4.072.407-2.443-2.85h-4.886l-1.629-2.443h-4.479l-2.036-1.629h-4.071l-3.258-2.443h-5.293l-1.629-2.036-6.107-.407v-1.628l-4.072-.408-2.85-3.257-4.072 1.221-1.628-2.85-5.7.407-.408-1.628-6.108-.407-2.443-2.85-4.886-.408-.407-1.628-4.886-.408-.814-1.628h-5.293l-1.63-2.85-4.478.407-1.629-2.036-4.886-.407-.814-1.63-6.108-.813-2.035-1.63-4.48-.406-1.22-2.443h-6.108l-.408-1.222h-6.921l-2.85-3.664-4.887.407-1.628-2.85h-5.294l-2.85-2.443h-5.293l-2.85-2.036-4.886-1.222-2.443-2.443-5.7-.407v-2.036l-5.701-.407-.407-2.443-5.7-1.629-.408-3.664-4.071-2.85 2.035-3.665-3.257-5.7 1.629-1.222-.407-6.514 1.628-1.222 1.629-6.108 4.479-.407 2.036-4.886 4.479.407 3.257-3.257 4.479 3.665 5.293-2.443 2.85 3.257 4.48-2.443 2.442 2.85 5.293-2.443 2.443 2.036 6.108-2.85 3.257 2.443 3.665-2.85 3.257 2.85 4.072-2.85 1.629 2.035 4.071-2.035 2.036 2.035 6.515-1.628.814 2.036 4.886-1.63.815 2.037 4.479-2.036 2.85 1.629 4.479-.408.814 1.63 3.665-2.444 3.664 2.443 3.665-2.036 2.85 2.443 2.443-2.036 3.257 3.258 4.072-2.443 1.221 2.036 4.072-1.222 2.036 2.036 3.664-2.036 1.63 2.443-.815 2.85-2.85.815-3.258-1.222-2.036 1.629-2.443-1.629-4.071 1.222-2.85-2.036-4.48 1.629-1.628-2.036-4.072 1.628-2.443-.814-3.664-.407-2.85.814v-2.036l-2.036.408-3.665 1.221-2.036-2.036h-2.443l-1.221 1.629-1.629-1.629h-2.443l-2.85 1.222-2.85-2.443h-3.258l-1.221.814-.407-.814-3.258.407-2.85.814-2.036-1.221h-2.443l-3.257 2.443-2.443-4.48-4.072 1.222-3.257 2.443h-3.665l-3.257.407-4.072-.407-4.479-1.221-5.293-.407-5.7-.815-5.7.815-6.108 3.257-3.258 3.664.407 7.737.815 8.55 3.664 5.293 4.886 4.48 2.85 1.628 4.48-.407.814 4.479 2.85-1.222 3.257.815 2.85-.408.815 2.443 4.071.408 3.258 3.257 4.479-.407 1.628 2.443 4.072.407.814 1.222 4.48-.815 1.22 2.036 4.887-.407.814 2.443 3.665-.815 2.85 3.258 1.221-1.222 2.85 3.258 2.85-1.629.815 2.036 4.479.407 1.629 2.036h4.479l2.036 2.85 4.071-1.221 2.443 2.443h2.443l2.036 2.036 2.443-.408 1.629 2.036 3.664-.407 1.222 1.629 3.257-.815 2.443 2.443h2.85l1.222 2.443 4.072-.814.407 2.036 3.664-.407 1.222 1.628 3.664-.407.407 1.629h4.887l1.221 3.257 3.257-1.221 1.63 2.443 3.257-.814 2.443 2.035h5.293l1.628 2.85 4.072-.407 2.443 2.036 4.072-.814.814 2.85h3.258l1.221 2.036h4.072l2.85 2.443 5.293-.407 2.443 3.257 2.85-.407 4.886 1.222 1.63 2.036 5.7-1.63 2.035 2.444h4.886l1.629 2.85h5.7l1.222 2.85 4.479.407 2.85 2.85 4.479.815 4.479 3.257 3.257-.407 7.33 1.629 4.885 2.036 4.886-.815 8.55 1.222h11.402l9.772-4.479 8.958-6.922 3.257-4.886 4.48-5.293 4.885-4.479 2.036-3.665 2.036-2.443 1.629 2.036z" fill="#666"/><path d="M497.084 380.724c-23.217 23.249-42.954 51.37-71.002 67.855l-2.08 1.989c-5.659.582-8.24 4.24-9.573 9.148-2.195 6.625 4.33 9.98 10.586 13.437 6.645-2.07 9.311-6.526 10.557-11.835l2.498-2.801c18.947-29.838 42.388-49.19 64.307-72.092z" fill="gray"/><path d="M363.534 539.114l2.443-3.257.814-1.63s3.258-.406 3.258-2.035-2.85-2.036-1.222-2.85c1.629-.815 3.258-5.293 3.258-5.293l.407-2.443 1.221-1.222 1.629-4.072.407-1.628-.814-4.886-3.665-.407-.407-3.258-.407-2.036-4.072-.407-2.036-.407-.814-.407-6.107 2.443.407 2.443 2.443 5.293-2.443 5.293-4.072 3.258 1.629 4.478 1.628 2.85-2.443 5.294.815 2.85 4.479 3.665z" fill="#666"/><path d="M304.084 200.354v6.922l-198.7-4.886v-5.7zM304.494 199.944v6.515l6.922 10.179 4.479-6.515z" fill="none"/><path d="M304.904 207.274l4.072 5.7-179.97-2.443-21.987-7.736zM326.074 130.314c1.629.407 9.365.407 9.365.407l10.179 29.723-10.994 2.036z" fill="#500"/><path d="M693.464 109.694c-14.323 13.347-30.241 25.497-50.673 34.262 0 0-2.488-3.355-1.44-2.88 4.213 1.914 52.602-30.896 49.521-32.821z" fill="#666"/><path d="M761.74 191.03c-14.323 13.347-30.241 25.497-50.673 34.262 0 0-2.488-3.355-1.44-2.88 4.213 1.914 52.602-30.896 49.521-32.821z" fill="url(#G)" transform="translate(-68.066 -81.606)"/><path d="M599.434 55.954c15.39-2.053 30.821-4.008 44.574-10.02l6.728.871c4.801 3.457 7.444 7.807 9.462 12.416-12.608 12.153-25.123 24.427-35.533 39.427l.42 5.882-3.154 4.138-6.517-4.574 1.05-5.664 7.36-4.138 30.697-32.674c-1.186-3.346-3.581-5.439-7.57-5.882-12.965 1.69-25.931 4.923-38.896 10.673l-2.734 1.96-5.677-2.177-1.892-7.624z" fill="#666"/><path d="M667.79 137.71c15.39-2.053 30.821-4.008 44.574-10.02l6.728.871c4.801 3.457 7.444 7.807 9.462 12.416-12.608 12.153-25.123 24.427-35.533 39.427l.42 5.882-3.154 4.138-6.517-4.574 1.05-5.664 7.36-4.138 30.697-32.674c-1.186-3.346-3.581-5.439-7.57-5.882-12.965 1.69-25.931 4.923-38.896 10.673l-2.734 1.96-5.677-2.177-1.892-7.624z" fill="url(#H)" transform="translate(-68.066 -81.606)"/><path d="M618.424 78.604l19.951 54.154-7.736 3.664-20.766-56.596z" fill="#666"/><path d="M638.374 132.764l-8.143 3.664c-2.565 3.53-2.457 7.058.407 10.587 5.987 2.534 10.957-1.037 15.88-4.886-.735-4.442-4.188-7.071-8.144-9.365zM568.224 13.244C589.299 10.53 610.429 7.946 629.262 0l9.213 1.152c6.574 4.568 10.193 10.318 12.956 16.41-17.265 16.064-34.402 32.288-48.657 52.113l.576 7.773-4.319 5.47-8.925-6.045 1.44-7.486 10.077-5.47 42.035-43.188c-1.624-4.422-4.904-7.188-10.365-7.773-17.755 2.234-35.51 6.506-53.264 14.108l-3.743 2.59-7.774-2.878-2.591-10.077z" fill="#666"/><path d="M621.484 10.365l15.259 16.987-3.743 5.47-13.532-14.97zM646.534 17.275c-1.694 14.876-6.979 29.751-13.244 44.627-7.803 4.421-16.11 7.332-26.2 4.895l-.864 7.197 5.759 5.183 4.318.576-.288-2.88 8.638-5.47 9.5-.576c8.242-10.456 12.787-25.349 17.276-40.308l.288-11.229-1.44-2.879zM721.964 93.574c-8.574 6.98-11.51 16.467-13.244 26.488-9.789-.332-19.578-3.507-29.367-9.213-4.213-2.23-5.953-5.45-6.334-9.213l.576-8.062 5.47-5.47c16.268.642 30.47 2.525 42.9 5.47z" fill="#666"/><path d="M635.594 53.264l15.259 16.987-3.743 5.47-13.532-14.97z" fill="#666"/><path d="M863.91 308.66c-43.245-11.522-172.16 5.685-210.13 140.17-.37 1.313-.719 2.647-1.048 4-7.736 31.874-4.007 75.145 17.37 135.96.405 7.273-3.148 9.796-8.144 10.587-24.098-46.757-32.235-82.815-29.354-111.49.11-1.09.32-2.161.376-3.237 7.672-147.97 167.44-215.31 239.89-187.4-.547 5.02-1.978 9.597-8.958 11.4z" fill="url(#I)" transform="translate(-68.066 -81.606)"/><path d="M772.8 413.938c0 7.646-6.199 13.845-13.845 13.845-7.646 0-13.845-6.199-13.845-13.845 0-7.646 6.198-13.845 13.845-13.845a13.844 13.844 0 0113.7 11.853l-13.7 1.991z" fill="#1a1a1a"/><path d="M706.59 214.27l-8.143 3.664c-2.565 3.53-2.457 7.058.407 10.587 5.987 2.534 10.957-1.037 15.88-4.886-.735-4.442-4.188-7.071-8.144-9.365z" fill="url(#J)" transform="translate(-68.066 -81.606)"/><path d="M706.34 213.94l-8.143 3.664c-2.565 3.53-2.457 7.058.407 10.586 5.987 2.535 10.957-1.036 15.88-4.885-.735-4.442-4.188-7.071-8.144-9.365z" fill="url(#K)" transform="translate(-68.066 -81.606)"/><path d="M647.114 141.944l68.523 214.78 52.4 57.007-5.182.576-4.031 5.758-4.607-9.213-43.19-46.08-57.58-149.14-171.6 194.06-15.54-1.16-2.31-4.03 182.54-205.57-8.06-27.06c-93.352-4.015-193.84-2.324-290.79-3.455l82.92 286.19-13.82 4.03-79.465-275.82-157.01 236.99-5.7-6.514 159.61-242.67-2.443-9.772 3.257-5.7 5.7.814 6.515.814c94.76-.995 191.57 5.535 284.21-3.257l-.814-6.515z" fill="#500"/><path d="M372.084 465.624l4.886 5.293-4.072 4.072 5.09 2.647-3.054 4.886 5.497 2.035-1.832 4.276 5.7 2.646-.61 5.497 6.718 1.425.61 6.311 7.33-.203.814 5.09 12.012 4.682 11.808.61h12.012l12.826-5.293 9.975-9.772 9.569-11.808 7.736-10.179-24.023-60.872-63.926 15.27-2.443 11.807z" fill="#4d4d4d"/><path d="M415.244 479.874c2.863-.947 5.416-.341 7.736 1.425 4.75 5.022 8.144 11.13 10.18 18.323.803 3.034-.331 5.584-3.869 7.533-10.744 1.134-19.482-2.243-28.095-5.904-2.005-1.662-2.124-3.701-1.425-5.904 3.862-5.935 8.897-11.166 15.472-15.472zM406.304 461.554c1.905 2.337 2.25 4.938 1.427 7.736-2.999 6.228-7.495 11.576-13.49 16.043-2.549 1.833-5.335 1.682-8.417-.928-4.89-9.634-4.85-19.002-4.5-28.354.838-2.467 2.7-3.305 5.008-3.437 6.921 1.492 13.604 4.332 19.972 8.94zM437.044 474.904c.126-3.013 1.593-5.187 4.066-6.734 6.376-2.67 13.288-3.688 20.737-3.052 3.122.32 5.107 2.281 5.68 6.28-2.733 10.451-8.979 17.434-15.445 24.198-2.263 1.29-4.213.68-6.027-.752-4.189-5.709-7.304-12.268-9.01-19.94zM439.004 450.184c-2.708-1.326-4.11-3.544-4.532-6.43.117-6.911 1.965-13.65 5.541-20.215 1.548-2.73 4.142-3.76 8.033-2.678 8.472 6.705 12.355 15.23 15.95 23.871.27 2.59-1.071 4.131-3.112 5.217-6.911 1.54-14.169 1.756-21.88.235zM419.814 443.634c-1.825 2.4-4.272 3.347-7.185 3.204-6.758-1.452-13.012-4.567-18.762-9.345-2.38-2.047-2.888-4.79-1.074-8.4 8.216-7.015 17.331-9.177 26.504-11.033 2.594.236 3.846 1.85 4.516 4.061.176 7.079-1.016 14.241-3.999 21.513zM427.664 479.874c1.425-2.85 4.683-2.647 4.683-2.647 4.852 7.33 8.448 14.658 10.586 21.987-.471 2.656-2.188 2.819-4.276 2.24-5.676-6.188-8.53-13.786-10.994-21.58zM410.284 471.914c2.715.32 3.486 3.282 3.486 3.282-4.536 6.745-9.432 12.376-14.747 16.71-2.284.464-2.909-1.008-3.04-3.055 3.376-7.1 8.704-12.16 14.301-16.936zM462.634 455.924c1.675 2.16.103 4.787.103 4.787-7.99 1.493-15.438 1.947-22.255 1.194-1.932-1.304-1.32-2.78.048-4.31 7.43-2.568 14.772-2.315 22.104-1.671zM409.884 450.954c.43 2.7-2.211 4.246-2.211 4.246-7.724-2.532-14.473-5.715-20.088-9.653-1.067-2.072.18-3.073 2.114-3.755 7.75 1.32 14.066 5.073 20.185 9.162z" fill="#fff"/><path d="M430.804 443.874c-2.445 1.39-4.729-.502-4.729-.502.053-8.115 1.025-15.56 3.064-22.228 1.65-1.752 2.987-.959 4.23.592 1.113 7.694-.535 14.946-2.565 22.138z" fill="none"/><path d="M414.834 466.644l-56.19 55.375 2.85 3.664 58.633-57.004-3.257-4.071z" fill="#666"/><path d="M83.182 445.84l-12.215 3.664c21.104-60.385 43.26-96.08 66.167-114.16 1.206-.95 2.39-1.888 3.624-2.708 43.017-28.602 78.98-40.614 109.37-41.085 1.916-.03 3.815-.085 5.684.047 180.29 12.778 191.63 184.87 184.87 224.27l-13.844-7.329c7.46-41.37-18.27-145.77-102.81-185.57-1.268-.597-2.375-1.49-3.585-2.201-39.08-22.991-94.142-22.861-174.33 27.126-1.066.665-2.024 1.522-3.034 2.334-20.408 16.392-40.423 46.59-59.901 95.627z" fill="url(#L)" transform="translate(-68.066 -81.606)"/><path d="M291.874 392.124l153.5 6.108c15.241 8.799 32.848 12.276 39.903 39.496 3.934 13.437 7.505 26.873 6.108 40.31h-4.886c-1.614 4.705-5.675 5.739-9.365 7.329-7.664-.104-10.317-2.714-13.844-4.886-4.355-8.445-4.837-22.053-6.108-34.61-.143-7.938-7.121-14.167-15.88-19.951-13.953-3.904-22.237-.72-32.167.407-12.816 10.959-20.605 24.934-28.095 39.088l-13.437 1.628c-6.501-1.703-11.763-4.026-11.808-8.957l-5.7-33.388c-11.89-8.778-29.533-7.964-44.382-11.808-8.98-6.437-14.614-13.245-13.844-20.766z" fill="#500"/><path d="M789.17 174.46c-8.574 6.98-11.51 16.467-13.244 26.488-9.789-.332-19.578-3.507-29.367-9.213-4.213-2.23-5.953-5.45-6.334-9.213l.576-8.062 5.47-5.47c16.268.642 30.47 2.525 42.9 5.47z" fill="url(#M)" transform="translate(-68.066 -81.606)"/><path d="M636.43 95.138c21.075-2.714 42.205-5.298 61.038-13.244l9.213 1.152c6.574 4.568 10.193 10.318 12.956 16.41-17.265 16.064-34.402 32.288-48.657 52.113l.576 7.773-4.319 5.47-8.925-6.045 1.44-7.486 10.077-5.47 42.035-43.188c-1.624-4.422-4.904-7.188-10.365-7.773-17.755 2.234-35.51 6.506-53.264 14.108l-3.743 2.59-7.774-2.878-2.591-10.077z" fill="url(#N)" transform="translate(-68.066 -81.606)"/><path d="M721.235 109.057c-2.994 7.223-8.057 12.076-11.308 10.838s-3.46-8.097-.465-15.32c2.994-7.224 8.056-12.076 11.307-10.838 3.236 1.232 3.46 8.036.502 15.233"/><path d="M720.346 108.52c-2.617 6.44-7.042 10.767-9.884 9.663s-3.024-7.219-.406-13.659c2.617-6.44 7.042-10.765 9.884-9.662 2.828 1.099 3.024 7.164.438 13.58" fill="maroon"/><path d="M714.31 98.881c-1.694 14.876-6.979 29.751-13.244 44.627-7.803 4.421-16.11 7.332-26.2 4.894l-.864 7.198 5.759 5.183 4.318.576-.288-2.88 8.638-5.47 9.5-.576c8.242-10.456 12.787-25.349 17.276-40.308l.288-11.229-1.44-2.879z" fill="url(#O)" transform="translate(-68.066 -81.606)"/><path d="M686.44 160.66l19.951 54.154-7.736 3.664-20.766-56.597z" fill="url(#P)" transform="translate(-68.066 -81.606)"/><g><path d="M142.034 215.414c-1.481 11.401-.283 22.802 3.664 34.202 25.895 8.83 51.331 11.249 76.141 4.886 4.372-13.165 6.35-26.33 5.294-39.496-27.436-5.448-55.5-7.12-85.1.407z" fill="#4d4d4d"/><path d="M210.88 297.77c-1.481 11.401-.283 22.802 3.664 34.202 25.895 8.83 51.331 11.249 76.141 4.886 4.372-13.165 6.35-26.33 5.294-39.496-27.436-5.448-55.5-7.12-85.1.407z" fill="url(#Q)" transform="translate(-68.066 -81.606)"/><path d="M210.06 297.77c-1.481 11.401-.283 22.802 3.664 34.202 25.896 8.83 51.332 11.249 76.142 4.886 4.37-13.165 6.349-26.33 5.293-39.496-27.436-5.448-55.5-7.12-85.1.407z" fill="url(#R)" transform="translate(-68.066 -81.606)"/><path d="M210.88 296.14c-1.481 11.401-.283 22.802 3.664 34.202 25.895 8.83 51.331 11.249 76.141 4.886 4.372-13.165 6.35-26.33 5.294-39.496-27.436-5.448-55.5-7.12-85.1.407z" fill="url(#S)" transform="translate(-68.066 -81.606)"/><path d="M210.06 297.36c-1.481 11.401-.283 22.802 3.664 34.202 25.896 8.83 51.332 11.249 76.142 4.886 4.37-13.165 6.349-26.33 5.293-39.496-27.436-5.448-55.5-7.12-85.1.407z" fill="url(#T)" transform="translate(-68.066 -81.606)"/></g><g><path d="M409.544 93.674c-21.329 17.44-41.932 35.515-71.662 45.603-22.679-5-41.839-24.957-68.405-13.437-.105-8.143-6.065-16.287-11.401-24.43 0 0 19.137-11.808 20.766-11.808 1.629 0 60.261 15.88 60.261 15.88z" fill="#4d4d4d"/><path d="M478.24 176.01c-21.329 17.44-41.932 35.515-71.662 45.603-22.679-5-41.839-24.957-68.405-13.437-.105-8.143-6.065-16.287-11.401-24.43 0 0 19.137-11.808 20.766-11.808 1.629 0 60.261 15.88 60.261 15.88z" fill="url(#U)" transform="translate(-68.066 -81.606)"/><path d="M410.364 94.484l-67.59 30.131c-23.796-1.733-34.706-18.194-51.711-27.688-14.815-5.127-25.996-2.656-28.909 17.101l-5.293-13.437c2.188-5.101 4.034-10.43 9.365-13.437 5.102-3.125 10.51-4.723 16.694-2.443 9.007 5.28 17.805 11.191 28.909 10.179 32.845-.136 84.374-14.952 98.535-.407z" fill="#500"/><path d="M478.39 175.61l-67.59 30.131c-23.796-1.733-34.706-18.194-51.711-27.688-14.815-5.127-25.996-2.656-28.909 17.101l-5.293-13.437c2.188-5.101 4.034-10.43 9.365-13.437 5.102-3.125 10.51-4.723 16.694-2.443 9.007 5.28 17.805 11.191 28.909 10.179 32.845-.136 84.374-14.952 98.535-.407z" fill="url(#V)" transform="translate(-68.066 -81.606)"/></g><path d="M715.7 224.17l68.523 214.78 52.4 57.007-5.182.576-4.031 5.758-4.607-9.213-43.187-46.066-57.583-149.14-171.6 194.05-15.547-1.152-2.303-4.03 182.54-205.57-8.062-27.065c-93.352-4.014-193.84-2.324-290.79-3.455l82.92 286.19-13.82 4.031-79.465-275.82-157.01 236.99-5.7-6.514 159.61-242.67-2.443-9.773 3.257-5.7 5.7.814 6.515.815c94.76-.995 191.57 5.535 284.21-3.258l-.814-6.514z" fill="url(#W)" transform="translate(-68.066 -81.606)"/><path d="M360.23 473.53l153.5 6.108c15.242 8.799 32.848 12.276 39.903 39.496 3.934 13.437 7.505 26.873 6.108 40.31h-4.886c-1.614 4.705-5.675 5.739-9.365 7.329-7.665-.104-10.317-2.714-13.844-4.886-4.355-8.445-4.837-22.053-6.108-34.61-.143-7.938-7.121-14.167-15.88-19.951-13.953-3.904-22.236-.72-32.166.407-12.816 10.959-20.605 24.934-28.095 39.088l-13.437 1.628c-6.501-1.703-11.763-4.026-11.808-8.957l-5.7-33.388c-11.89-8.778-29.532-7.964-44.382-11.808-8.98-6.437-14.614-13.245-13.844-20.766z" fill="url(#X)" transform="translate(-68.066 -81.606)"/><path d="M412.87 239.09c97.14 1.83 195.22 5.31 286.47-3.167l3.455 8.925c-95.914 3.469-192.39 3.03-289.07 1.152z" fill="url(#Y)" transform="translate(-68.066 -81.606)"/><path d="M714.99 281.55l3.664 8.55-177.93 199.92-7.736-4.071z" fill="url(#Z)" transform="translate(-68.066 -81.606)"/><path d="M405.14 221.29l75.734 258.15-8.55-.814-72.477-258.96z" fill="url(#aa)" transform="translate(-68.066 -81.606)"/><path d="M785.03 174.46l-6.311 6.311-32.37-7.329 2.85-2.85z" fill="url(#ab)" transform="translate(-68.066 -81.606)"/><path d="M719.852 108.81c-2.35 5.831-6.325 9.748-8.878 8.749s-2.715-6.536-.365-12.366c2.35-5.83 6.325-9.747 8.877-8.748 2.54.994 2.716 6.486.394 12.295" fill="#ffd5d5"/><path d="M636.27 94.943c21.075-2.714 42.205-5.298 61.038-13.244l9.213 1.152c6.574 4.568 10.193 10.318 12.956 16.41-17.265 16.064-34.402 32.288-48.657 52.113l.576 7.773-4.319 5.47-8.925-6.045 1.44-7.486 10.077-5.47 42.035-43.188c-1.624-4.422-4.904-7.188-10.365-7.773-17.755 2.234-35.51 6.506-53.264 14.108l-3.743 2.59-7.774-2.878-2.591-10.077z" fill="url(#ac)" transform="translate(-68.066 -81.606)"/><g><path d="M770.704 413.092c0 7.083-5.196 12.826-11.604 12.826-6.409 0-11.604-5.742-11.604-12.826 0-7.083 5.195-12.826 11.604-12.826 6.379 0 11.562 5.69 11.604 12.741"/><path d="M634.78 604.23c0 5.734-4.922 10.383-10.994 10.383s-10.994-4.649-10.994-10.383c0-5.734 4.922-10.383 10.994-10.383 6.043 0 10.953 4.607 10.993 10.314" transform="translate(135.517 -191.949)" fill="url(#ad)"/></g><g><path d="M199.255 411.668c0 10.457-7.657 18.934-17.101 18.934-9.445 0-17.101-8.477-17.101-18.934 0-10.456 7.657-18.934 17.1-18.934 9.401 0 17.04 8.4 17.102 18.809"/><path d="M634.78 604.23c0 5.734-4.922 10.383-10.994 10.383s-10.994-4.649-10.994-10.383c0-5.734 4.922-10.383 10.994-10.383 6.043 0 10.953 4.607 10.993 10.314" transform="matrix(1.4737 0 0 1.4762 -736.82 -481.493)" fill="url(#ad)"/></g><g><path d="M434.587 462.97c0 7.083-5.196 12.826-11.604 12.826-6.409 0-11.604-5.742-11.604-12.826 0-7.084 5.196-12.826 11.604-12.826 6.379 0 11.562 5.69 11.604 12.741"/><path d="M634.78 604.23c0 5.734-4.922 10.383-10.994 10.383s-10.994-4.649-10.994-10.383c0-5.734 4.922-10.383 10.994-10.383 6.043 0 10.953 4.607 10.993 10.314" transform="translate(-200.6 -142.071)" fill="url(#ad)"/></g><g><path d="M466.079 421.728c0 2.65-1.856 4.799-4.145 4.799-2.288 0-4.144-2.149-4.144-4.799 0-2.65 1.856-4.799 4.144-4.799 2.279 0 4.13 2.13 4.145 4.767"/><path d="M634.78 604.23c0 5.734-4.922 10.383-10.994 10.383s-10.994-4.649-10.994-10.383c0-5.734 4.922-10.383 10.994-10.383 6.043 0 10.953 4.607 10.993 10.314" transform="matrix(.35714 0 0 .37415 239.228 195.352)" fill="url(#ad)"/></g><g><path d="M367.399 450.058c0 2.65-1.856 4.799-4.145 4.799-2.288 0-4.144-2.149-4.144-4.799 0-2.65 1.856-4.799 4.144-4.799 2.279 0 4.13 2.13 4.145 4.767"/><path d="M634.78 604.23c0 5.734-4.922 10.383-10.994 10.383s-10.994-4.649-10.994-10.383c0-5.734 4.922-10.383 10.994-10.383 6.043 0 10.953 4.607 10.993 10.314" transform="matrix(.35714 0 0 .37415 140.548 223.682)" fill="url(#ad)"/></g><g><path d="M380.579 452.678c0 2.65-1.856 4.799-4.145 4.799-2.288 0-4.144-2.149-4.144-4.799 0-2.65 1.856-4.799 4.144-4.799 2.279 0 4.13 2.13 4.145 4.767"/><path d="M634.78 604.23c0 5.734-4.922 10.383-10.994 10.383s-10.994-4.649-10.994-10.383c0-5.734 4.922-10.383 10.994-10.383 6.043 0 10.953 4.607 10.993 10.314" transform="matrix(.35714 0 0 .37415 153.728 226.302)" fill="url(#ad)"/></g><g><path d="M187.025 410.568c0 2.65-1.856 4.799-4.145 4.799-2.288 0-4.144-2.149-4.144-4.799 0-2.65 1.856-4.799 4.144-4.799 2.279 0 4.13 2.13 4.145 4.767"/><path d="M634.78 604.23c0 5.734-4.922 10.383-10.994 10.383s-10.994-4.649-10.994-10.383c0-5.734 4.922-10.383 10.994-10.383 6.043 0 10.953 4.607 10.993 10.314" transform="matrix(.35714 0 0 .37415 -39.826 184.192)" fill="url(#ad)"/></g><g><path d="M412.739 406.258c0 2.65-1.856 4.799-4.145 4.799-2.288 0-4.144-2.149-4.144-4.799 0-2.65 1.856-4.799 4.144-4.799 2.279 0 4.13 2.13 4.145 4.767"/><path d="M634.78 604.23c0 5.734-4.922 10.383-10.994 10.383s-10.994-4.649-10.994-10.383c0-5.734 4.922-10.383 10.994-10.383 6.043 0 10.953 4.607 10.993 10.314" transform="matrix(.35714 0 0 .37415 185.888 179.882)" fill="url(#ad)"/></g><g><path d="M415.449 416.668c0 2.65-1.856 4.799-4.145 4.799-2.288 0-4.144-2.149-4.144-4.799 0-2.65 1.856-4.799 4.144-4.799 2.279 0 4.13 2.13 4.145 4.767"/><path d="M634.78 604.23c0 5.734-4.922 10.383-10.994 10.383s-10.994-4.649-10.994-10.383c0-5.734 4.922-10.383 10.994-10.383 6.043 0 10.953 4.607 10.993 10.314" transform="matrix(.35714 0 0 .37415 188.598 190.292)" fill="url(#ad)"/></g><g><path d="M165.998 224.458c0 2.65-1.856 4.799-4.145 4.799-2.288 0-4.144-2.149-4.144-4.799 0-2.65 1.856-4.799 4.144-4.799 2.279 0 4.13 2.13 4.145 4.767"/><path d="M634.78 604.23c0 5.734-4.922 10.383-10.994 10.383s-10.994-4.649-10.994-10.383c0-5.734 4.922-10.383 10.994-10.383 6.043 0 10.953 4.607 10.993 10.314" transform="matrix(.35714 0 0 .37415 -60.853 -1.918)" fill="url(#ad)"/></g><g><path d="M215.934 225.912c0 2.65-1.856 4.799-4.145 4.799-2.288 0-4.144-2.149-4.144-4.799 0-2.65 1.856-4.799 4.144-4.799 2.279 0 4.13 2.13 4.145 4.767"/><path d="M634.78 604.23c0 5.734-4.922 10.383-10.994 10.383s-10.994-4.649-10.994-10.383c0-5.734 4.922-10.383 10.994-10.383 6.043 0 10.953 4.607 10.993 10.314" transform="matrix(.35714 0 0 .37415 -10.917 -.464)" fill="url(#ad)"/></g><g><path d="M322.759 121.851c0 2.65-1.856 4.799-4.145 4.799-2.288 0-4.144-2.149-4.144-4.799 0-2.65 1.856-4.799 4.144-4.799 2.279 0 4.13 2.13 4.145 4.767"/><path d="M634.78 604.23c0 5.734-4.922 10.383-10.994 10.383s-10.994-4.649-10.994-10.383c0-5.734 4.922-10.383 10.994-10.383 6.043 0 10.953 4.607 10.993 10.314" transform="matrix(.35714 0 0 .37415 95.908 -104.525)" fill="url(#ad)"/></g><g><path d="M327.089 126.563c0 2.65-1.856 4.799-4.145 4.799-2.288 0-4.144-2.149-4.144-4.799 0-2.65 1.856-4.799 4.144-4.799 2.279 0 4.13 2.13 4.145 4.767"/><path d="M634.78 604.23c0 5.734-4.922 10.383-10.994 10.383s-10.994-4.649-10.994-10.383c0-5.734 4.922-10.383 10.994-10.383 6.043 0 10.953 4.607 10.993 10.314" transform="matrix(.35714 0 0 .37415 100.238 -99.813)" fill="url(#ad)"/></g><path d="M686.49 160.41l19.951 54.154-7.736 3.664-20.766-56.597z" fill="url(#ae)" transform="translate(-68.066 -81.606)"/><g><path d="M618.499 84.304c0 2.65-1.856 4.799-4.145 4.799-2.288 0-4.144-2.149-4.144-4.799 0-2.65 1.856-4.799 4.144-4.799 2.279 0 4.13 2.13 4.145 4.767"/><path d="M634.78 604.23c0 5.734-4.922 10.383-10.994 10.383s-10.994-4.649-10.994-10.383c0-5.734 4.922-10.383 10.994-10.383 6.043 0 10.953 4.607 10.993 10.314" transform="matrix(.35714 0 0 .37415 391.648 -142.072)" fill="url(#ad)"/></g></svg>