<?xml version="1.0" standalone="no"?>
<!DOCTYPE svg PUBLIC "-//W3C//DTD SVG 20010904//EN"
 "http://www.w3.org/TR/2001/REC-SVG-20010904/DTD/svg10.dtd">
<svg version="1.0" xmlns="http://www.w3.org/2000/svg"
 width="177.000000pt" height="182.000000pt" viewBox="0 0 177.000000 182.000000"
 preserveAspectRatio="xMidYMid meet">

<g transform="translate(0.000000,182.000000) scale(0.100000,-0.100000)"
fill="#000000" stroke="none">
<path d="M1198 1734 c-30 -16 -58 -61 -58 -94 0 -24 1 -24 -61 -4 -38 13 -73
15 -147 12 -89 -5 -117 -12 -214 -53 -15 -6 -18 -2 -18 25 0 63 -87 114 -139
81 -10 -6 -1 -8 27 -4 36 5 45 2 72 -26 23 -22 30 -38 28 -58 -4 -39 -30 -40
-71 -4 -46 41 -85 41 -131 0 -19 -16 -38 -40 -42 -52 -11 -36 -26 -50 -35 -35
-6 8 -9 -4 -9 -30 0 -58 41 -102 95 -102 35 0 37 -1 31 -26 -4 -15 -10 -40
-13 -58 -3 -17 -23 -51 -44 -75 -45 -50 -56 -97 -39 -153 18 -63 59 -116 127
-168 l62 -47 -43 -31 c-24 -18 -90 -75 -147 -127 -82 -75 -108 -94 -124 -89
-55 17 -90 15 -124 -8 -59 -40 -76 -87 -75 -208 0 -84 5 -116 23 -162 34 -88
81 -149 141 -185 64 -39 115 -43 153 -12 15 11 66 31 113 45 85 25 96 25 399
25 295 0 316 -1 391 -22 43 -13 94 -34 113 -46 112 -76 273 59 317 265 28 137
11 226 -58 287 -41 38 -69 42 -133 21 -16 -6 -46 17 -145 105 -68 61 -146 122
-172 135 -27 13 -48 26 -48 28 0 2 25 18 56 36 122 68 187 157 187 254 0 55
-22 110 -48 120 -9 3 -27 31 -40 61 -29 66 -29 65 -10 65 29 0 75 30 90 60 31
60 9 177 -41 222 -51 45 -144 61 -196 32z m117 -5 c79 -20 133 -101 123 -185
-4 -33 -29 -40 -38 -9 -7 28 -30 30 -30 3 -1 -24 -21 -58 -36 -58 -4 0 -3 5 4
12 7 7 12 17 12 22 0 6 -7 0 -16 -12 -22 -32 -36 -28 -83 23 -47 51 -48 73 -5
113 43 38 115 22 141 -33 l14 -30 -5 35 c-10 58 -57 88 -130 81 -10 0 -34 -15
-52 -31 -20 -17 -40 -27 -49 -24 -19 8 -19 8 1 45 14 28 61 58 92 59 7 0 33
-5 57 -11z m-210 -118 c63 -28 121 -76 164 -136 19 -27 30 -46 24 -42 -6 4 -8
-2 -6 -17 5 -27 -4 -35 -55 -47 -28 -6 -41 -4 -58 10 -13 10 -21 21 -18 23 2
3 -3 11 -12 19 -14 11 -18 11 -30 -6 -16 -21 -18 -53 -5 -74 7 -10 -1 -27 -26
-56 l-34 -42 -56 15 c-44 11 -68 12 -107 3 -48 -9 -53 -8 -91 18 -39 27 -40
28 -38 85 2 53 1 57 -20 54 -22 -3 -70 -64 -62 -78 7 -12 -63 6 -80 20 -8 7
-15 27 -15 44 0 24 -3 27 -10 16 -7 -10 -10 -11 -10 -2 0 7 7 15 15 18 8 4 13
10 10 14 -3 4 14 29 36 54 46 52 130 99 217 121 79 20 205 14 267 -14z m-532
-22 c46 -25 49 -59 8 -108 -20 -24 -33 -32 -47 -27 -26 8 -39 4 -36 -11 5 -20
-16 -15 -28 6 -28 54 15 138 78 150 2 1 13 -4 25 -10z m157 -214 c0 -8 -4 -15
-10 -15 -5 0 -10 7 -10 15 0 8 5 15 10 15 6 0 10 -7 10 -15z m-33 -37 c-3 -7
-5 -2 -5 12 0 14 2 19 5 13 2 -7 2 -19 0 -25z m653 -8 c0 -5 -5 -10 -11 -10
-5 0 -7 5 -4 10 3 6 8 10 11 10 2 0 4 -4 4 -10z m-211 -27 c-12 -15 -12 -16 6
-9 11 5 47 13 79 18 50 8 69 7 115 -9 64 -21 91 -57 91 -119 0 -41 -1 -42 -44
-53 -65 -16 -88 -14 -140 14 -54 29 -68 31 -60 10 17 -43 -48 -130 -119 -160
-49 -20 -70 -13 -97 32 -22 38 -16 52 22 53 21 0 75 45 83 70 3 10 -1 35 -9
54 l-15 36 42 25 c23 14 38 25 33 25 -5 0 -3 7 4 15 7 8 15 15 17 15 3 0 -1
-8 -8 -17z m-604 -3 c3 -5 1 -10 -4 -10 -6 0 -11 5 -11 10 0 6 2 10 4 10 3 0
8 -4 11 -10z m231 -25 c27 -16 53 -28 59 -26 5 1 1 -7 -9 -18 -27 -30 -17
-107 18 -138 15 -13 35 -23 46 -23 22 0 17 -29 -11 -59 -26 -28 -101 -29 -145
-2 -78 47 -100 93 -68 139 19 27 4 29 -20 3 -27 -30 -112 -62 -156 -59 -38 2
-40 3 -40 36 0 68 55 135 142 172 43 18 130 6 184 -25z m506 -447 c24 -18 93
-76 151 -128 95 -84 105 -96 90 -107 -9 -7 -25 -13 -36 -13 -10 0 -68 47 -127
105 -60 58 -117 105 -126 105 -8 0 -14 -3 -12 -7 62 -122 83 -200 72 -268 -9
-58 -60 -149 -109 -194 -80 -74 -221 -105 -351 -78 -172 37 -256 123 -256 262
0 47 9 82 41 160 22 55 41 106 41 113 0 24 -36 -6 -110 -90 -113 -130 -121
-138 -138 -138 -18 0 -62 38 -62 54 1 6 20 26 43 44 23 17 82 68 130 112 116
105 157 107 157 8 0 -26 3 -47 8 -46 4 2 19 -10 34 -25 38 -38 88 -35 140 11
18 15 138 25 138 11 0 -15 69 -49 98 -49 23 0 37 8 54 30 13 18 28 28 36 25
12 -4 14 5 9 54 -8 89 12 101 85 49z m-453 11 c41 -15 44 -60 5 -78 -15 -6
-24 -14 -21 -17 3 -3 14 -1 26 5 11 7 22 7 25 2 9 -14 -52 -61 -77 -60 -17 1
-14 3 9 10 17 5 37 16 44 24 11 13 8 13 -17 -1 -37 -22 -60 -13 -77 27 -9 21
-15 27 -19 18 -3 -8 -6 4 -6 27 -1 22 2 44 6 47 10 11 66 8 102 -4z m315 -52
c-1 -64 -22 -98 -58 -96 -20 2 -20 2 1 6 12 2 26 10 32 17 8 10 4 11 -19 8
-19 -3 -41 3 -62 17 l-33 22 40 -6 40 -5 -39 19 -39 19 42 7 c22 4 41 11 41
16 0 11 -7 11 -48 0 -25 -8 -32 -7 -32 4 0 18 47 34 95 32 l40 -2 -1 -58z
m-166 -2 c1 -22 -1 -35 -5 -30 -8 10 -16 11 -58 5 -15 -2 -13 -4 10 -10 l30
-9 -29 2 c-24 2 -30 7 -33 31 -6 47 3 58 44 54 37 -3 38 -5 41 -43z m-229 -65
c11 -24 11 -24 -3 -6 -9 11 -16 24 -16 30 0 12 5 7 19 -24z m305 -19 c-3 -3
-15 6 -27 18 l-22 24 27 -19 c14 -10 24 -21 22 -23z m-725 -130 c27 -27 45
-58 59 -102 38 -119 54 -240 33 -253 -12 -8 -34 30 -50 84 -20 69 -67 156 -97
179 -53 42 -108 36 -133 -13 -9 -18 -10 -15 -5 19 12 82 52 125 116 125 31 0
45 -7 77 -39z m1366 17 c28 -22 55 -73 55 -104 0 -15 -3 -15 -22 3 -75 68
-152 54 -198 -37 -11 -21 -29 -76 -41 -124 -12 -47 -25 -86 -30 -86 -21 0 29
231 64 293 41 73 118 98 172 55z m-1431 -158 c58 -35 106 -157 106 -266 0 -67
-7 -84 -34 -84 -43 0 -109 91 -145 197 -25 74 -27 121 -5 151 19 27 37 28 78
2z m1444 -10 c41 -80 -86 -349 -160 -338 -36 5 -44 57 -24 153 20 99 52 163
96 193 42 28 70 25 88 -8z m-1198 -10 c0 -14 -9 -21 -35 -26 -43 -8 -58 2 -22
15 14 5 28 15 32 20 10 18 25 13 25 -9z m907 -2 c24 -15 32 -24 22 -26 -25 -5
-69 16 -69 33 0 19 2 19 47 -7z m-907 -52 c0 -42 -18 -76 -40 -76 -12 0 -20 7
-20 18 0 9 -3 27 -6 38 -5 17 0 24 23 32 41 15 43 14 43 -12z m930 -19 c0 -21
-26 -57 -42 -57 -14 0 -30 52 -23 77 5 20 8 21 35 11 20 -7 30 -17 30 -31z"/>
<path d="M800 790 c0 -5 9 -10 20 -10 11 0 20 5 20 10 0 6 -9 10 -20 10 -11 0
-20 -4 -20 -10z"/>
</g>
</svg>
