<?xml version="1.0" standalone="no"?>
<!DOCTYPE svg PUBLIC "-//W3C//DTD SVG 20010904//EN"
 "http://www.w3.org/TR/2001/REC-SVG-20010904/DTD/svg10.dtd">
<svg version="1.0" xmlns="http://www.w3.org/2000/svg"
 width="1392.000000pt" height="163.000000pt" viewBox="0 0 1392.000000 163.000000"
 preserveAspectRatio="xMidYMid meet">

<g transform="translate(0.000000,163.000000) scale(0.100000,-0.100000)"
fill="#000000" stroke="none">
<path d="M12415 1293 c-56 -5 -87 -23 -39 -23 16 0 72 -5 124 -10 52 -6 332
-17 622 -25 290 -8 540 -17 555 -21 15 -4 25 -4 21 0 -14 16 -412 59 -702 76
-168 9 -471 11 -581 3z"/>
<path d="M1006 1275 c34 -7 124 -38 200 -68 77 -30 165 -60 197 -67 37 -9 53
-16 45 -22 -25 -15 -196 -8 -409 18 -211 25 -215 25 -292 8 -77 -17 -78 -17
-130 4 -57 24 -131 29 -143 10 -4 -6 -7 -26 -6 -45 1 -18 0 -33 -3 -33 -2 0
-34 7 -72 16 -86 20 -173 14 -236 -17 -55 -27 -56 -45 -1 -97 28 -27 41 -32
81 -32 60 0 398 -67 436 -87 19 -9 27 -20 23 -29 -3 -9 -6 -18 -6 -20 0 -2
-55 -4 -122 -4 -76 0 -118 -4 -112 -9 19 -19 164 -61 295 -85 179 -33 180 -34
135 -61 l-36 -22 79 -21 c43 -12 92 -22 110 -22 34 0 38 -7 17 -35 -10 -14
-35 -22 -92 -30 -75 -10 -79 -12 -82 -37 -4 -33 11 -42 108 -59 62 -12 541
-14 2840 -13 1521 1 3926 6 5345 12 2430 9 3180 6 3800 -17 191 -6 228 -10
280 -30 45 -17 72 -21 108 -16 63 8 212 51 241 71 27 17 37 63 24 111 -9 34
-31 45 -116 58 -55 9 -91 40 -98 86 -8 47 -2 49 209 49 92 0 167 2 167 5 0 3
-11 33 -25 66 -38 95 -40 120 -13 154 38 49 26 152 -21 170 -94 38 -214 49
-317 30 -47 -9 -99 -13 -115 -10 -15 4 -122 8 -236 10 -228 3 -434 18 -588 41
-55 9 -179 19 -275 24 -96 5 -2547 9 -5445 9 l-5270 1 -175 25 c-96 14 -218
24 -270 24 l-95 -1 61 -13z"/>
<path d="M12350 331 c-49 -6 -43 -7 60 -14 63 -5 178 -15 255 -23 77 -7 208
-13 290 -13 142 1 148 1 116 16 -63 27 -236 43 -456 41 -115 -1 -235 -4 -265
-7z"/>
<path d="M7087 143 c-2 -5 0 -38 6 -76 l10 -67 34 0 c33 0 33 0 33 49 0 74
-13 101 -49 101 -16 0 -32 -3 -34 -7z"/>
<path d="M7247 136 c-7 -8 -22 -36 -32 -62 -10 -27 -22 -55 -28 -61 -7 -10 -1
-13 25 -13 32 0 36 4 66 68 18 37 32 70 32 75 0 13 -48 8 -63 -7z"/>
<path d="M7683 112 c-13 -2 -23 -9 -23 -16 0 -8 -9 -20 -21 -27 -16 -11 -19
-20 -14 -42 6 -23 13 -27 40 -27 20 0 35 6 39 15 3 8 12 15 20 15 7 0 17 7 20
16 9 23 8 24 -15 24 -16 0 -20 5 -16 20 6 23 0 27 -30 22z"/>
<path d="M7305 45 c-14 -13 -25 -29 -25 -35 0 -15 46 -12 60 5 16 19 30 19 30
0 0 -19 49 -20 56 -1 21 54 -74 78 -121 31z"/>
<path d="M7477 45 c-15 -14 -27 -30 -27 -35 0 -16 57 -11 64 5 7 19 21 19 41
-1 15 -15 18 -15 32 -2 12 12 13 20 4 37 -17 31 -78 29 -114 -4z"/>
<path d="M7787 42 c-15 -15 -27 -31 -27 -35 0 -14 51 -7 56 8 8 20 34 19 34
-1 0 -11 8 -14 27 -12 57 6 29 68 -31 68 -22 0 -41 -9 -59 -28z"/>
<path d="M7956 44 c-14 -15 -26 -31 -26 -35 0 -16 58 -10 64 6 3 8 10 15 16
15 5 0 10 -7 10 -15 0 -10 10 -15 30 -15 32 0 38 16 20 51 -17 30 -80 26 -114
-7z"/>
<path d="M8106 55 c-10 -28 4 -45 32 -38 17 4 23 2 18 -6 -5 -7 4 -11 28 -11
27 0 40 6 52 25 8 13 13 28 10 33 -3 5 -34 9 -69 10 -50 2 -66 -2 -71 -13z"/>
<path d="M8283 63 c-7 -2 -13 -18 -13 -34 0 -28 2 -30 33 -27 28 3 32 7 35 36
3 28 0 32 -20 31 -13 0 -29 -3 -35 -6z"/>
<path d="M8380 44 c-15 -40 -12 -45 23 -42 28 3 32 7 35 36 3 29 1 32 -23 32
-18 0 -28 -7 -35 -26z"/>
<path d="M5580 30 c0 -23 4 -30 20 -30 11 0 20 7 20 15 0 20 48 20 71 -1 26
-24 41 -14 26 16 -11 22 -20 25 -75 28 l-62 3 0 -31z"/>
<path d="M6030 45 c0 -8 7 -15 15 -15 8 0 15 7 15 15 0 8 -7 15 -15 15 -8 0
-15 -7 -15 -15z"/>
<path d="M6608 34 c4 -24 3 -26 -24 -20 -16 3 -36 2 -44 -4 -11 -7 0 -10 38
-10 51 0 52 0 52 30 0 19 -5 30 -14 30 -9 0 -12 -8 -8 -26z"/>
<path d="M6730 30 c0 -30 0 -30 58 -30 45 1 53 3 39 11 -10 6 -29 8 -43 5 -21
-6 -24 -3 -24 19 0 16 -6 25 -15 25 -10 0 -15 -10 -15 -30z"/>
<path d="M5780 10 c-11 -7 -3 -10 30 -10 33 0 41 3 30 10 -8 5 -22 10 -30 10
-8 0 -22 -5 -30 -10z"/>
<path d="M5900 10 c-11 -7 -2 -10 33 -10 30 0 46 4 42 10 -8 13 -55 13 -75 0z"/>
<path d="M6030 10 c0 -5 7 -10 16 -10 8 0 12 5 9 10 -3 6 -10 10 -16 10 -5 0
-9 -4 -9 -10z"/>
<path d="M6108 8 c-8 -4 11 -8 45 -8 31 0 57 4 57 8 0 11 -85 11 -102 0z"/>
<path d="M6240 8 c0 -5 23 -8 51 -8 28 0 48 4 44 9 -6 11 -95 9 -95 -1z"/>
<path d="M6405 10 c-4 -6 8 -10 30 -10 22 0 34 4 30 10 -8 13 -52 13 -60 0z"/>
<path d="M6860 10 c0 -5 9 -10 20 -10 11 0 20 5 20 10 0 6 -9 10 -20 10 -11 0
-20 -4 -20 -10z"/>
<path d="M6960 10 c0 -5 7 -10 15 -10 8 0 15 5 15 10 0 6 -7 10 -15 10 -8 0
-15 -4 -15 -10z"/>
</g>
</svg>
