<?xml version="1.0" standalone="no"?>
<!DOCTYPE svg PUBLIC "-//W3C//DTD SVG 20010904//EN"
 "http://www.w3.org/TR/2001/REC-SVG-20010904/DTD/svg10.dtd">
<svg version="1.0" xmlns="http://www.w3.org/2000/svg"
 width="388.000000pt" height="231.000000pt" viewBox="0 0 388.000000 231.000000"
 preserveAspectRatio="xMidYMid meet">

<g transform="translate(0.000000,231.000000) scale(0.100000,-0.100000)"
fill="#000000" stroke="none">
<path d="M1582 2233 c-18 -9 -37 -24 -43 -34 -9 -18 -37 -19 -645 -19 -401 0
-642 -4 -654 -10 -25 -14 -43 -71 -31 -101 21 -56 -9 -54 705 -59 l660 -5 8
-37 c7 -35 5 -39 -50 -96 -54 -56 -62 -60 -132 -76 -242 -53 -529 -289 -742
-611 -189 -284 -241 -463 -174 -593 23 -44 108 -118 176 -152 65 -33 231 -80
280 -80 51 0 60 -9 60 -55 l0 -44 -256 -3 -256 -3 -29 -33 c-46 -52 -37 -117
21 -147 25 -13 152 -15 989 -15 723 0 967 3 986 12 30 14 55 55 55 92 0 14
-13 40 -29 58 l-29 33 -251 3 -251 3 -1 45 c-1 24 -2 50 -3 57 -1 8 30 14 108
19 125 9 204 27 277 63 60 31 130 98 158 152 11 21 41 56 68 78 77 66 483 368
488 364 2 -2 -15 -41 -37 -86 l-41 -82 20 -33 c38 -66 132 -105 182 -77 18 10
53 67 110 176 l84 162 162 -85 c89 -46 171 -84 183 -84 26 0 78 43 98 82 23
44 22 104 -1 127 -11 10 -87 54 -170 97 -82 42 -152 78 -153 80 -2 1 36 78 84
171 86 165 88 170 74 202 -27 65 -142 112 -192 78 -13 -8 -59 -85 -103 -171
-44 -85 -84 -156 -89 -156 -5 0 -78 36 -163 80 -84 44 -164 80 -177 80 -55 0
-116 -82 -116 -155 0 -48 16 -61 159 -134 107 -55 139 -81 97 -81 -10 0 -466
-120 -557 -147 -12 -3 -20 6 -29 34 -21 65 -97 212 -147 281 -86 123 -272 300
-363 347 -19 11 -71 31 -115 46 -68 23 -83 32 -98 60 -10 19 -27 41 -38 51
-24 21 -27 93 -3 102 9 3 310 6 670 6 l655 0 24 25 c32 31 34 96 5 125 -20 20
-33 20 -663 20 -639 0 -642 0 -655 21 -15 23 -70 49 -104 49 -13 0 -38 -8 -56
-17z m-70 -115 c2 -29 8 -61 12 -70 8 -17 -26 -18 -625 -18 -701 0 -669 -3
-669 64 1 78 -20 75 667 76 l611 0 4 -52z m1521 31 c31 -24 35 -63 11 -97
l-15 -22 -638 0 -639 0 15 41 c7 23 11 55 8 70 l-6 28 619 1 c613 0 619 0 645
-21z m-1373 -191 c0 -18 -6 -23 -25 -23 -19 0 -25 5 -25 23 0 17 6 22 25 22
19 0 25 -5 25 -22z m8 -70 c7 -7 12 -22 12 -35 0 -19 -5 -23 -28 -23 -26 0
-28 2 -24 35 4 36 19 44 40 23z m92 -108 c47 -12 123 -39 169 -61 72 -35 100
-57 206 -162 166 -165 253 -299 316 -484 15 -44 30 -115 34 -155 6 -68 5 -79
-19 -127 -60 -117 -183 -193 -376 -230 -65 -13 -384 -47 -594 -63 -321 -25
-876 52 -971 135 -19 17 -27 35 -32 77 l-6 54 44 -38 c54 -46 212 -124 339
-167 112 -38 242 -49 318 -28 74 20 150 103 190 205 64 166 100 434 83 615
-16 167 -47 292 -92 368 -24 40 -19 46 56 60 28 6 59 12 70 14 54 12 186 5
265 -13z m1772 -30 c42 -12 88 -61 88 -95 0 -28 -148 -315 -163 -315 -5 0 -27
16 -48 35 -25 22 -53 37 -79 41 -22 4 -42 10 -45 14 -4 7 107 233 142 288 12
19 42 39 63 41 3 1 22 -4 42 -9z m-2208 -31 c8 -12 25 -46 36 -75 l22 -54 -31
-26 c-28 -23 -31 -31 -31 -85 0 -32 3 -59 7 -59 4 0 24 16 44 36 l36 35 12
-102 11 -103 -49 -50 c-47 -49 -50 -55 -61 -131 -40 -270 -165 -414 -366 -419
-69 -1 -76 -4 -108 -35 l-35 -34 -38 16 c-108 44 -116 48 -104 60 6 6 11 14
11 18 0 11 -98 41 -110 34 -6 -3 -24 4 -41 16 -28 20 -31 26 -26 63 12 90 168
353 308 521 129 154 296 298 423 364 69 37 71 37 90 10z m1778 -221 l155 -82
-31 -21 c-39 -26 -76 -81 -76 -112 0 -13 -7 -26 -14 -29 -16 -6 -270 120 -298
149 -52 51 8 177 83 177 15 0 96 -37 181 -82z m523 -273 c90 -47 166 -92 169
-101 21 -55 -13 -136 -69 -163 -29 -14 -35 -12 -190 69 -88 45 -162 84 -164
86 -2 1 13 17 32 34 40 34 61 86 55 131 -3 16 -2 29 0 29 3 0 78 -38 167 -85z
m-395 -100 c14 -8 44 -14 68 -15 23 0 42 -3 42 -7 0 -5 -37 -78 -83 -163 l-82
-155 -53 -3 c-49 -3 -56 0 -87 31 -46 46 -45 70 6 167 30 59 53 89 92 119 58
45 62 46 97 26z m-1410 -810 l0 -55 -350 0 -350 0 0 43 0 44 98 -4 c53 -2 198
3 322 10 124 8 237 15 253 16 26 1 27 0 27 -54z m110 -10 l0 -65 255 0 256 0
24 -25 c34 -33 34 -83 -1 -116 l-26 -24 -968 0 -968 0 -26 24 c-36 34 -36 92
0 120 25 20 39 21 280 21 l254 0 0 55 c0 59 0 59 62 49 l37 -6 -6 -49 -6 -49
372 0 371 0 0 65 0 65 45 0 45 0 0 -65z"/>
<path d="M1920 1367 c-105 -23 -199 -99 -244 -196 -17 -37 -21 -65 -21 -146 0
-92 3 -104 29 -153 76 -137 229 -211 372 -182 114 24 196 85 244 184 129 261
-98 555 -380 493z m162 -133 c33 -16 128 -102 128 -115 0 -4 -24 6 -52 21 -95
51 -189 58 -328 25 -23 -6 -22 -4 10 25 77 70 161 85 242 44z"/>
<path d="M3866 529 c-8 -43 -7 -166 3 -214 6 -29 9 -1 10 103 0 78 -1 142 -3
142 -2 0 -6 -14 -10 -31z"/>
</g>
</svg>
