<?xml version="1.0" standalone="no"?>
<!DOCTYPE svg PUBLIC "-//W3C//DTD SVG 20010904//EN"
 "http://www.w3.org/TR/2001/REC-SVG-20010904/DTD/svg10.dtd">
<svg version="1.0" xmlns="http://www.w3.org/2000/svg"
 width="401.000000pt" height="307.000000pt" viewBox="0 0 401.000000 307.000000"
 preserveAspectRatio="xMidYMid meet">

<g transform="translate(0.000000,307.000000) scale(0.100000,-0.100000)"
fill="#000000" stroke="none">
<path d="M1485 2590 c-19 -58 -66 -260 -100 -425 -105 -520 -126 -628 -146
-773 -12 -89 -19 -165 -16 -168 3 -4 68 -10 144 -15 308 -19 646 -50 711 -65
l23 -5 -25 -29 c-59 -70 -89 -219 -66 -332 23 -123 97 -252 171 -304 47 -32
132 -44 179 -24 42 17 107 92 138 158 24 51 27 68 27 172 0 94 -4 127 -23 182
-13 37 -32 79 -44 93 -11 14 -18 29 -15 32 10 10 565 -114 640 -142 12 -5 17
-2 17 11 2 60 28 306 34 311 7 7 98 -13 219 -49 37 -11 70 -18 73 -16 4 5 -74
43 -220 108 l-69 30 7 63 c4 34 10 64 12 66 8 8 166 -47 356 -124 100 -41 184
-72 186 -70 6 6 -279 171 -401 231 l-119 59 6 44 c3 25 8 46 11 49 2 3 72 -27
155 -66 82 -39 150 -69 150 -67 0 4 -211 143 -257 170 -18 11 -33 23 -33 29 0
15 92 450 96 458 6 9 -45 35 -191 96 -359 149 -828 264 -1335 327 -306 37
-277 39 -295 -15z m345 -125 c378 -35 721 -104 1002 -201 171 -60 323 -129
321 -145 -4 -37 -56 -324 -59 -327 -1 -2 -94 41 -206 97 -174 86 -535 238
-543 229 -1 -2 5 -32 14 -68 l17 -65 159 -57 c183 -66 383 -144 480 -188 l67
-30 -7 -42 c-4 -24 -8 -44 -10 -46 -1 -1 -71 25 -156 59 -345 138 -700 236
-1131 313 l-27 5 19 -47 c10 -26 30 -74 43 -107 l25 -60 79 -12 c405 -65 761
-147 1102 -255 l33 -10 -7 -62 c-3 -33 -8 -62 -9 -63 -1 -2 -40 11 -87 28
-201 74 -504 157 -719 197 -117 22 -210 36 -210 30 0 -1 13 -39 29 -83 l29
-80 83 -12 c214 -30 315 -47 449 -73 161 -32 375 -77 403 -86 16 -5 17 -15 11
-117 -4 -62 -8 -113 -9 -115 -1 -2 -56 10 -121 27 -392 98 -937 179 -1403 210
-72 5 -135 11 -138 15 -18 17 120 671 188 892 33 110 65 214 70 232 12 38 4
38 219 17z m470 -1423 c37 -38 50 -88 52 -208 1 -75 -3 -109 -16 -139 -40 -93
-100 -112 -155 -50 -39 45 -54 101 -55 205 -1 74 3 92 26 137 46 87 97 106
148 55z"/>
<path d="M2207 981 c-30 -36 -51 -144 -42 -213 9 -64 25 -71 25 -11 0 100 44
209 81 200 22 -6 27 21 7 41 -20 20 -45 14 -71 -17z"/>
<path d="M900 2142 c0 -14 -146 -255 -183 -301 -29 -36 -52 -51 -143 -90 -125
-54 -107 -21 -164 -294 -43 -203 -47 -237 -27 -237 7 0 21 -6 31 -13 15 -11 8
-13 -50 -15 -38 -2 -69 -4 -71 -6 -2 -1 -11 -43 -21 -93 l-19 -91 36 -6 c20
-3 82 -6 137 -6 l101 0 6 83 c8 141 46 226 122 279 87 60 167 59 261 -5 88
-59 134 -152 158 -319 6 -42 14 -79 17 -82 3 -4 71 -13 150 -21 194 -20 445
-53 643 -85 33 -5 61 -8 62 -7 2 1 7 38 13 82 6 44 18 102 27 128 9 26 15 50
13 51 -10 9 -353 38 -576 48 l-253 12 0 55 c0 167 70 594 136 833 13 48 24 92
24 97 0 8 -71 11 -215 11 -118 0 -215 -4 -215 -8z m304 -87 c-1 -5 -18 -75
-39 -155 l-37 -145 -169 0 c-93 0 -169 1 -169 3 0 8 164 308 170 312 15 9 245
-5 244 -15z m-101 -391 c33 -6 37 -10 37 -36 0 -29 -2 -30 -32 -24 -18 3 -66
9 -105 12 -68 6 -73 8 -73 30 0 23 3 24 68 24 37 0 84 -3 105 -6z m-180 -155
c53 -14 110 -69 137 -130 12 -28 20 -53 18 -54 -2 -2 -22 20 -46 50 -61 80
-123 109 -230 108 -45 0 -80 2 -77 5 9 9 99 31 130 31 17 1 47 -4 68 -10z
m610 -430 c313 -19 276 -28 -180 -45 l-183 -7 0 31 0 32 96 0 c53 0 173 -5
267 -11z"/>
<path d="M976 2008 c-20 -30 -48 -99 -43 -104 2 -2 18 14 36 36 32 40 33 40
100 40 68 0 81 7 81 41 0 5 -36 9 -80 9 -71 0 -81 -2 -94 -22z"/>
<path d="M734 1344 c-39 -9 -106 -76 -132 -134 -22 -47 -26 -70 -26 -160 -1
-138 21 -213 81 -280 103 -114 200 -128 288 -43 21 20 49 62 64 92 22 48 26
69 26 151 -1 160 -40 253 -141 331 -54 41 -104 55 -160 43z m105 -140 c34 -43
44 -91 39 -188 -10 -178 -94 -248 -172 -143 -18 25 -21 43 -21 130 0 57 6 118
13 139 30 84 99 115 141 62z"/>
<path d="M751 1165 c-33 -43 -54 -189 -32 -223 5 -9 10 7 15 43 11 97 52 171
88 159 21 -6 22 -1 8 27 -15 27 -55 24 -79 -6z"/>
<path d="M2540 1006 c0 -3 7 -35 16 -73 9 -37 19 -104 22 -147 l7 -80 113 -29
c62 -17 114 -28 117 -26 6 7 26 289 21 298 -3 4 -22 11 -43 14 -21 3 -82 15
-136 26 -103 22 -117 24 -117 17z"/>
</g>
</svg>
