<?xml version="1.0" standalone="no"?>
<!DOCTYPE svg PUBLIC "-//W3C//DTD SVG 20010904//EN"
 "http://www.w3.org/TR/2001/REC-SVG-20010904/DTD/svg10.dtd">
<svg version="1.0" xmlns="http://www.w3.org/2000/svg"
 width="457.000000pt" height="309.000000pt" viewBox="0 0 457.000000 309.000000"
 preserveAspectRatio="xMidYMid meet">

<g transform="translate(0.000000,309.000000) scale(0.100000,-0.100000)"
fill="#000000" stroke="none">
<path d="M1224 2907 c-21 -18 -26 -32 -26 -64 1 -57 12 -76 104 -169 l80 -82
-93 -356 -94 -357 -65 8 c-297 36 -584 -64 -777 -271 -104 -111 -170 -226
-214 -371 -29 -98 -37 -312 -16 -417 88 -423 448 -718 877 -718 430 0 790 296
875 719 27 132 17 317 -24 441 -78 240 -239 426 -462 535 -48 23 -96 44 -107
47 -19 5 -20 9 -10 49 6 24 14 48 19 53 4 4 209 -179 456 -409 l448 -417 6
-76 c7 -89 38 -161 94 -216 l35 -35 0 -111 0 -110 -70 0 -70 0 0 -60 0 -60
185 0 185 0 0 60 0 60 -70 0 -70 0 0 91 c0 89 0 90 23 82 12 -4 72 -6 132 -5
l111 3 32 -78 c103 -252 330 -451 598 -525 65 -17 106 -21 229 -21 135 0 159
2 239 27 262 79 444 233 562 471 65 133 86 223 87 380 1 159 -23 267 -88 400
-89 182 -221 316 -400 405 -261 131 -545 131 -809 -2 -43 -21 -82 -36 -86 -31
-26 29 -262 337 -266 347 -4 11 79 342 88 352 2 2 26 -3 53 -11 183 -56 305
-9 305 116 0 69 -35 128 -89 152 -40 18 -58 19 -161 14 -145 -8 -297 -31 -425
-64 -120 -31 -150 -47 -171 -91 -14 -30 -14 -35 0 -58 20 -30 52 -31 136 -4
34 11 74 20 88 20 39 0 183 -41 188 -54 2 -6 -15 -83 -39 -171 -41 -154 -43
-160 -67 -158 -37 3 -1273 183 -1286 188 -10 3 18 132 50 233 6 19 -7 37 -88
121 -53 55 -96 106 -96 115 0 9 0 19 0 24 0 4 123 9 272 12 260 5 273 6 276
24 8 42 -17 46 -299 46 -265 0 -268 0 -295 -23z m1714 -301 c63 -20 122 -36
132 -36 10 0 32 12 49 26 31 26 41 22 18 -7 -17 -22 -51 -39 -78 -39 -12 0
-70 16 -130 35 -148 48 -226 59 -330 46 -104 -14 -118 -12 -54 5 33 9 90 12
165 10 99 -3 130 -8 228 -40z m-610 -458 c272 -40 362 -56 362 -66 0 -12 -144
-568 -172 -664 -10 -33 -15 -38 -42 -38 -71 0 -196 -86 -242 -165 -9 -17 -59
26 -450 390 -241 224 -447 415 -456 424 -17 15 -16 22 12 129 16 62 32 117 34
121 3 4 137 -12 298 -35 161 -24 456 -67 656 -96z m555 -271 l115 -148 -87
-87 c-57 -57 -104 -117 -138 -175 -29 -49 -53 -93 -55 -98 -3 -9 -122 2 -132
12 -3 2 33 148 80 323 46 176 84 321 84 323 0 16 32 -20 133 -150z m637 -382
l0 -234 -32 6 c-18 3 -36 8 -40 12 -3 3 -43 89 -88 191 -45 102 -84 188 -87
193 -10 16 148 62 230 66 16 1 17 -17 17 -234z m198 210 c30 -8 56 -16 59 -19
4 -4 -152 -422 -162 -434 -2 -2 -14 0 -29 4 l-26 6 0 235 0 235 53 -7 c28 -4
76 -13 105 -20z m-2740 -227 l-3 -233 -31 -3 -30 -3 -92 207 c-62 138 -89 211
-82 218 15 15 140 45 193 45 l47 1 -2 -232z m153 224 c13 -6 7 -37 -43 -226
-31 -120 -60 -221 -63 -224 -3 -3 -5 99 -5 226 l0 232 48 -1 c26 0 54 -3 63
-7z m100 -37 c0 -17 -53 -156 -57 -152 -8 8 39 168 48 165 5 -2 9 -8 9 -13z
m2675 -37 c28 -16 68 -45 90 -64 l39 -33 -164 -165 -165 -165 -28 17 c-19 11
-26 22 -22 32 3 8 40 103 81 210 41 107 77 199 80 203 7 11 26 3 89 -35z
m-2561 -2 c33 -19 80 -52 104 -73 l42 -38 -164 -164 -164 -163 -27 17 c-17 12
-25 24 -21 34 28 81 161 421 164 421 2 0 32 -15 66 -34z m1950 -103 c30 -68
52 -123 50 -123 -5 0 -177 222 -173 224 16 13 45 25 56 23 8 -1 38 -57 67
-124z m-2507 -94 c87 -198 92 -212 75 -225 -10 -7 -20 -14 -23 -14 -3 0 -79
74 -170 165 l-164 164 28 23 c46 37 140 98 151 98 5 0 52 -95 103 -211z m2432
14 c58 -74 107 -139 108 -144 2 -5 -5 -9 -15 -9 -10 0 -71 53 -138 120 l-119
119 24 26 c13 14 26 25 29 25 3 -1 53 -62 111 -137z m-4 -140 c-4 -4 -243 24
-284 33 l-23 5 23 40 c13 23 38 59 57 81 l34 40 98 -98 c54 -54 97 -100 95
-101z m924 98 c28 -41 47 -78 42 -82 -4 -5 -99 -49 -211 -99 -158 -70 -207
-88 -217 -79 -8 6 -14 16 -14 23 0 6 73 84 162 173 128 128 165 160 175 151 8
-6 36 -45 63 -87z m-3347 -267 c-8 -13 -19 -24 -24 -24 -10 0 -420 157 -426
164 -8 8 62 127 101 172 l35 41 165 -165 c162 -162 164 -165 149 -188z m807
251 c22 -34 40 -66 40 -72 0 -9 -398 -193 -418 -193 -4 0 -13 10 -21 21 -12
21 -3 32 150 185 l163 163 23 -21 c13 -12 41 -49 63 -83z m1155 -95 c121 -10
303 -30 405 -44 102 -14 226 -30 276 -35 50 -6 109 -18 130 -26 21 -9 28 -13
14 -10 -14 3 -63 9 -110 15 -47 6 -195 23 -330 40 -315 38 -632 64 -688 56
-62 -8 -120 -44 -148 -91 -24 -41 -33 -42 -13 -2 36 70 114 113 209 116 19 0
134 -8 255 -19z m1470 -62 c13 -43 34 -159 35 -190 0 -5 -105 -8 -234 -8
l-234 0 -7 32 c-4 18 -4 34 1 35 5 2 99 44 209 93 110 49 203 89 207 89 4 1
14 -23 23 -51z m-2535 -52 c11 -44 20 -96 20 -118 l0 -38 -235 0 -235 0 0 25
c0 14 0 28 -1 31 -1 11 415 193 423 185 4 -4 17 -42 28 -85z m-1140 -25 c189
-73 205 -81 208 -105 l3 -26 -235 0 -236 0 0 36 c0 53 30 174 43 174 7 0 104
-36 217 -79z m466 60 c-3 -4 -23 -11 -45 -15 -61 -9 -131 -63 -163 -125 -32
-62 -38 -39 -7 26 23 49 70 89 126 109 43 15 97 18 89 5z m1384 -354 l5 -267
-26 0 c-19 0 -28 6 -33 23 -3 12 -6 128 -6 258 0 241 3 264 40 257 13 -3 16
-42 20 -271z m-1417 243 c-3 -11 -9 -20 -14 -20 -20 0 -49 -42 -49 -70 0 -67
88 -96 129 -43 18 21 20 34 15 73 -4 28 -2 50 4 54 12 7 36 -28 45 -64 8 -31
-5 -85 -20 -85 -6 0 -15 -4 -20 -9 -5 -5 -3 -6 5 -2 6 4 12 3 12 -1 0 -16 -57
-43 -90 -43 -45 0 -85 24 -104 64 -19 40 -20 53 -5 95 17 49 104 97 92 51z
m2773 -172 c-38 -90 -115 -139 -218 -137 l-63 1 73 13 c133 24 202 94 212 214
l5 66 3 -60 c2 -38 -3 -74 -12 -97z m498 20 c-8 -63 -25 -141 -35 -159 -7 -15
-35 -7 -216 64 -114 44 -212 83 -216 87 -5 5 -6 17 -2 29 6 21 11 21 241 21
l234 0 -6 -42z m-3501 25 c2 -5 7 -19 10 -33 6 -24 -2 -28 -205 -118 -116 -51
-215 -89 -219 -85 -14 14 -49 162 -49 205 l0 38 229 0 c127 0 232 -3 234 -7z
m956 -35 c-1 -68 -32 -174 -49 -170 -8 1 -106 37 -217 80 -175 66 -203 80
-203 98 0 11 3 24 7 27 3 4 109 7 235 7 l228 0 -1 -42z m2279 -120 c171 -66
212 -85 207 -97 -12 -32 -71 -124 -102 -159 l-32 -37 -165 164 c-161 161 -164
165 -149 188 8 12 18 23 21 23 4 0 102 -37 220 -82z m-2535 -15 c108 -42 197
-80 197 -86 0 -19 -61 -124 -98 -165 l-37 -43 -164 165 -164 165 17 26 c12 18
23 25 34 20 9 -4 106 -41 215 -82z m-652 56 c10 -20 -3 -36 -152 -186 l-164
-164 -37 43 c-20 23 -49 64 -63 90 l-26 48 53 25 c171 78 364 164 370 164 4 1
12 -9 19 -20z m3068 -203 l163 -163 -44 -35 c-23 -19 -64 -47 -90 -62 -44 -26
-47 -26 -57 -9 -5 10 -48 106 -95 213 -79 179 -85 196 -69 208 9 6 19 12 23
12 3 0 79 -74 169 -164z m-2999 136 l23 -18 -78 -205 c-43 -112 -82 -208 -86
-213 -18 -20 -209 96 -209 126 0 13 309 328 321 328 4 0 17 -8 29 -18z m580
-343 c-33 -29 -128 -89 -141 -89 -3 0 -48 95 -100 211 -90 203 -92 212 -74
225 18 13 31 2 185 -151 l165 -166 -35 -30z m1982 332 c-6 -29 -153 -406 -162
-415 -11 -11 -117 46 -170 92 l-42 35 154 154 c145 145 155 154 188 151 24 -2
34 -7 32 -17z m-269 -123 l-133 -133 -29 30 c-16 17 -46 56 -66 88 l-36 58 78
36 c79 38 135 49 253 52 l65 1 -132 -132z m348 112 c5 0 9 -99 9 -235 0 -230
0 -235 -20 -235 -32 0 -174 31 -183 39 -13 13 155 442 171 436 8 -3 18 -5 23
-5z m201 -187 c48 -109 90 -206 93 -215 5 -14 -5 -20 -57 -36 -35 -11 -91 -23
-125 -27 l-63 -7 0 235 0 236 23 4 c12 2 27 5 32 6 6 0 49 -88 97 -196z
m-2537 -28 c73 -165 90 -212 79 -218 -28 -16 -111 -37 -171 -43 l-63 -7 0 236
0 236 23 4 c12 2 26 3 31 3 4 -1 50 -96 101 -211z m1745 200 c-32 -18 -40 -18
-40 0 0 10 10 15 33 15 l32 -1 -25 -14z m-1940 -230 l0 -235 -28 0 c-35 0
-136 18 -167 30 -25 9 -23 14 136 418 6 15 17 22 34 22 l25 0 0 -235z"/>
</g>
</svg>
