<?xml version="1.0" standalone="no"?>
<!DOCTYPE svg PUBLIC "-//W3C//DTD SVG 20010904//EN"
 "http://www.w3.org/TR/2001/REC-SVG-20010904/DTD/svg10.dtd">
<svg version="1.0" xmlns="http://www.w3.org/2000/svg"
 width="202.000000pt" height="119.000000pt" viewBox="0 0 202.000000 119.000000"
 preserveAspectRatio="xMidYMid meet">

<g transform="translate(0.000000,119.000000) scale(0.100000,-0.100000)"
fill="#000000" stroke="none">
<path d="M805 1000 c-115 -16 -219 -65 -294 -141 -36 -35 -91 -143 -110 -214
l-11 -41 -116 -33 c-66 -19 -128 -44 -142 -56 -25 -21 -26 -27 -27 -129 l0
-106 88 0 c56 0 86 -4 82 -10 -9 -15 -182 -13 -188 3 -4 9 -8 8 -16 -3 -15
-21 -14 -70 2 -71 6 0 64 0 127 0 l115 1 26 -43 c38 -64 118 -102 196 -94 67
7 125 43 162 100 l24 37 251 0 251 0 35 -47 c47 -62 98 -88 175 -88 77 0 129
26 175 89 l35 47 125 -1 c69 -1 131 -1 138 -1 21 2 15 69 -8 81 -17 9 -20 21
-20 88 0 42 -5 94 -10 114 -12 41 -22 46 -185 96 l-89 28 -23 64 c-37 105 -81
186 -118 218 -104 92 -213 123 -434 121 -86 -1 -183 -5 -216 -9z m330 -20
c220 -25 332 -107 411 -303 15 -37 32 -71 38 -76 6 -4 62 -25 123 -45 62 -21
116 -42 120 -48 4 -7 1 -9 -8 -6 -15 6 -130 38 -205 57 -40 11 -42 14 -78 100
-65 157 -119 215 -244 266 -95 38 -184 49 -354 42 -163 -6 -244 -22 -316 -62
-23 -13 -40 -20 -37 -14 4 5 23 18 43 28 114 58 316 82 507 61z m-175 -210 l0
-170 -249 0 -250 0 31 68 c63 135 117 191 222 231 54 20 147 37 214 40 l32 1
0 -170z m297 140 c67 -23 153 -87 182 -133 12 -19 34 -66 50 -105 l29 -70
-239 -1 -239 -2 0 172 0 172 81 -7 c45 -4 106 -15 136 -26z m-713 -63 c-16
-18 -37 -44 -47 -57 -18 -25 -18 -25 -1 5 16 29 64 85 72 85 2 0 -9 -15 -24
-33z m-106 -197 c-11 -36 -22 -70 -23 -76 -3 -10 -161 -45 -196 -43 -8 0 29
14 81 30 52 16 97 33 101 37 3 4 16 33 29 65 12 32 24 56 25 55 2 -2 -6 -32
-17 -68z m170 -189 c69 -36 108 -97 97 -155 -4 -24 -3 -27 4 -11 9 19 10 18
10 -5 1 -38 -19 -101 -29 -95 -6 3 -7 -1 -4 -10 9 -22 -57 -82 -104 -95 -20
-5 -51 -10 -68 -10 -43 0 -95 20 -87 33 3 6 1 7 -6 3 -14 -9 -43 12 -35 25 3
5 0 8 -7 7 -7 -2 -24 17 -37 41 -57 100 -13 230 93 277 45 20 129 17 173 -5z
m942 -15 c51 -34 79 -91 80 -164 0 -61 -23 -127 -41 -116 -7 4 -9 3 -6 -3 17
-27 -86 -83 -151 -83 -72 0 -187 77 -166 112 4 6 3 8 -3 5 -6 -4 -16 13 -23
40 -25 86 19 180 102 222 61 31 150 26 208 -13z m345 -176 c4 -6 -32 -10 -99
-10 -64 0 -106 4 -106 10 0 6 40 10 99 10 56 0 103 -4 106 -10z"/>
<path d="M433 366 c-34 -31 -38 -39 -38 -84 0 -63 26 -101 82 -121 51 -18 87
-9 130 34 27 27 33 41 33 74 0 47 -21 95 -45 105 -9 3 -14 9 -11 14 2 4 -22 9
-54 10 -55 3 -61 1 -97 -32z m131 6 c2 -4 -14 -6 -36 -4 -29 3 -48 -2 -71 -18
l-32 -21 28 25 c20 19 39 26 67 26 21 0 41 -3 44 -8z"/>
<path d="M1369 384 c-81 -52 -75 -174 10 -219 86 -44 191 28 178 124 -13 92
-19 99 -117 107 -31 3 -53 -1 -71 -12z m64 -13 c-23 -4 -52 -16 -64 -27 -22
-19 -22 -19 -11 3 15 27 27 32 77 31 l40 -1 -42 -6z m98 -8 c13 -16 12 -17 -3
-4 -17 13 -22 21 -14 21 2 0 10 -8 17 -17z"/>
<path d="M1577 269 c7 -7 15 -10 18 -7 3 3 -2 9 -12 12 -14 6 -15 5 -6 -5z"/>
</g>
</svg>
