<?xml version="1.0" standalone="no"?>
<!DOCTYPE svg PUBLIC "-//W3C//DTD SVG 20010904//EN"
 "http://www.w3.org/TR/2001/REC-SVG-20010904/DTD/svg10.dtd">
<svg version="1.0" xmlns="http://www.w3.org/2000/svg"
 width="393.000000pt" height="351.000000pt" viewBox="0 0 393.000000 351.000000"
 preserveAspectRatio="xMidYMid meet">

<g transform="translate(0.000000,351.000000) scale(0.100000,-0.100000)"
fill="#000000" stroke="none">
<path d="M1205 3296 c-131 -58 -152 -301 -35 -399 126 -107 289 51 251 242
-12 61 -48 122 -86 147 -34 22 -94 27 -130 10z m75 -96 c28 -15 54 -92 45
-137 -21 -111 -83 -134 -119 -43 -9 22 -16 52 -16 66 0 33 27 96 47 112 20 15
20 14 43 2z"/>
<path d="M783 3230 c-49 -29 -68 -73 -67 -155 0 -55 6 -81 26 -120 62 -120
167 -167 249 -112 119 79 80 318 -63 393 -39 20 -107 17 -145 -6z m115 -96
c52 -36 81 -155 49 -199 -21 -27 -62 -12 -97 36 -70 97 -34 221 48 163z"/>
<path d="M1684 3220 c-184 -105 -222 -417 -60 -491 53 -24 90 -23 146 2 62 28
116 82 153 154 24 49 31 76 35 142 4 70 1 88 -18 128 -47 97 -153 125 -256 65z
m155 -96 c49 -62 12 -210 -69 -275 -52 -41 -81 -45 -116 -16 -27 23 -29 30
-29 94 1 81 24 131 84 186 52 47 99 51 130 11z"/>
<path d="M526 2960 c-61 -54 -56 -146 11 -221 45 -50 81 -69 128 -69 77 0 115
42 115 129 0 65 -47 137 -110 169 -62 31 -102 29 -144 -8z m97 -81 c51 -26 81
-109 39 -109 -32 0 -89 77 -78 106 6 17 11 17 39 3z"/>
<path d="M1041 2810 c-213 -56 -381 -232 -452 -475 -42 -141 -36 -456 12 -695
71 -359 202 -616 358 -708 104 -61 257 -80 380 -47 142 37 277 147 321 260 34
86 32 201 -4 315 -33 104 -45 249 -26 342 6 35 31 124 55 199 54 169 69 249
63 350 -6 110 -55 207 -152 304 -155 153 -350 208 -555 155z m290 -104 c119
-42 231 -138 285 -244 27 -53 29 -65 28 -162 -1 -98 -4 -115 -52 -261 -28 -85
-56 -186 -63 -224 -19 -108 -7 -260 31 -389 38 -130 37 -179 -6 -263 -35 -68
-108 -131 -191 -164 -48 -20 -76 -24 -163 -24 -95 0 -111 3 -162 28 -106 52
-196 186 -271 403 -93 267 -133 644 -92 852 68 335 378 547 656 448z"/>
<path d="M424 2710 c-12 -4 -31 -21 -44 -37 -44 -55 -5 -159 73 -197 52 -24
110 -21 144 8 24 20 28 32 28 73 0 61 -38 116 -99 144 -45 20 -69 22 -102 9z
m80 -117 c17 -16 23 -29 16 -31 -12 -4 -60 36 -60 50 0 15 17 8 44 -19z"/>
<path d="M2479 2517 c-100 -68 -126 -232 -54 -346 31 -49 76 -74 133 -73 138
2 212 226 119 363 -32 47 -83 79 -127 79 -22 0 -51 -9 -71 -23z m110 -103 c44
-56 31 -187 -22 -215 -18 -10 -25 -7 -49 20 -15 17 -28 39 -29 49 0 9 -2 26
-4 37 -6 30 14 94 36 116 26 26 44 24 68 -7z"/>
<path d="M1981 2480 c-47 -11 -81 -39 -109 -91 -33 -61 -29 -178 10 -260 72
-156 219 -227 325 -157 59 39 78 85 78 188 0 71 -4 94 -26 141 -60 128 -174
202 -278 179z m74 -104 c126 -53 183 -274 84 -326 -31 -17 -101 19 -136 71
-39 57 -53 101 -53 161 0 41 5 54 29 79 34 34 31 33 76 15z"/>
<path d="M2906 2475 c-52 -18 -110 -77 -136 -138 -32 -74 -26 -179 13 -230
104 -136 310 -2 312 203 0 127 -85 203 -189 165z m89 -134 c14 -64 -35 -170
-85 -186 -55 -17 -80 76 -41 153 43 85 111 102 126 33z"/>
<path d="M3145 2203 c-74 -39 -115 -104 -115 -184 0 -45 4 -55 34 -85 38 -38
82 -45 139 -21 64 27 127 121 127 190 0 89 -101 145 -185 100z m81 -97 c12
-31 -48 -106 -83 -106 -26 0 -14 57 18 89 33 33 56 39 65 17z"/>
<path d="M2490 2049 c-224 -61 -415 -266 -428 -461 -6 -104 11 -197 70 -376
l52 -157 0 -135 c0 -98 -5 -150 -17 -190 -42 -136 -51 -198 -40 -266 15 -88
47 -149 113 -215 158 -159 416 -196 607 -88 142 81 263 297 342 614 44 174 55
272 55 495 1 196 -1 222 -22 294 -71 246 -249 430 -463 481 -71 16 -214 18
-269 4z m293 -117 c176 -64 317 -244 356 -456 16 -85 14 -306 -4 -442 -40
-299 -146 -595 -260 -722 -138 -153 -409 -148 -567 10 -88 88 -104 191 -54
353 20 66 29 120 33 202 7 133 -2 186 -62 374 -52 163 -69 252 -62 329 13 147
150 301 322 363 68 24 217 19 298 -11z"/>
<path d="M3285 1931 c-78 -35 -121 -117 -95 -181 46 -111 236 -56 257 75 7 46
-13 92 -48 110 -37 20 -65 19 -114 -4z m65 -89 c0 -15 -48 -54 -62 -50 -8 3
-4 13 14 31 27 27 48 35 48 19z"/>
</g>
</svg>
