<?xml version="1.0" standalone="no"?>
<!DOCTYPE svg PUBLIC "-//W3C//DTD SVG 20010904//EN"
 "http://www.w3.org/TR/2001/REC-SVG-20010904/DTD/svg10.dtd">
<svg version="1.0" xmlns="http://www.w3.org/2000/svg"
 width="379.000000pt" height="248.000000pt" viewBox="0 0 379.000000 248.000000"
 preserveAspectRatio="xMidYMid meet">

<g transform="translate(0.000000,248.000000) scale(0.100000,-0.100000)"
fill="#000000" stroke="none">
<path d="M1475 2382 c-16 -11 -36 -26 -44 -35 -12 -16 -69 -17 -651 -17 l-639
0 -20 -26 c-37 -47 -20 -115 32 -134 21 -7 243 -10 669 -10 352 0 643 -2 647
-5 5 -2 11 -21 13 -40 4 -31 -2 -41 -54 -95 -32 -33 -67 -60 -76 -60 -46 0
-175 -46 -247 -87 -239 -137 -451 -361 -631 -666 -83 -140 -117 -235 -118
-332 -1 -95 15 -134 81 -199 84 -83 227 -141 408 -166 96 -13 458 -13 645 0
74 5 156 9 183 10 l47 0 0 -55 0 -55 -350 0 -350 0 -1 38 c0 30 -2 33 -9 17
-5 -11 -9 -30 -9 -42 l-1 -23 365 0 365 0 0 59 c0 59 0 59 33 64 17 3 68 6
112 6 269 3 420 69 518 227 30 48 65 78 302 255 204 153 240 179 250 179 4 0
-12 -34 -34 -75 -23 -41 -41 -84 -41 -96 0 -32 69 -95 119 -109 78 -21 86 -13
184 173 l89 167 162 -85 c90 -47 172 -85 184 -85 28 0 82 47 98 87 20 46 18
106 -3 126 -10 8 -83 49 -162 91 -80 42 -148 79 -153 84 -5 5 27 76 71 159 95
181 96 184 76 222 -31 62 -153 104 -197 69 -8 -7 -52 -84 -97 -170 -45 -87
-85 -158 -87 -158 -3 0 -79 38 -169 85 -152 78 -166 84 -195 74 -56 -20 -105
-111 -93 -173 6 -32 36 -52 182 -126 57 -28 101 -53 98 -56 -2 -3 -89 -27
-193 -54 -104 -27 -236 -63 -294 -79 -58 -16 -108 -27 -111 -23 -4 4 -12 25
-19 47 -21 68 -101 215 -160 294 -31 42 -105 122 -164 178 -114 109 -207 166
-316 194 -47 12 -56 19 -82 61 -17 27 -33 48 -38 48 -4 0 -10 18 -12 41 -3 31
0 43 14 50 9 5 299 10 678 12 l662 2 19 24 c26 31 25 91 -1 119 l-21 22 -642
0 c-639 0 -642 0 -655 21 -16 24 -70 49 -109 49 -15 0 -41 -8 -58 -18z m137
-31 c29 -26 33 -35 33 -81 0 -46 -4 -55 -33 -81 -47 -43 -102 -41 -148 5 -28
28 -34 42 -34 76 0 34 6 48 34 76 46 46 101 48 148 5z m-202 -79 c0 -27 7 -57
16 -70 l15 -22 -640 0 c-628 0 -641 0 -661 20 -26 26 -25 68 2 97 l21 23 624
0 623 0 0 -48z m1530 28 c24 -24 26 -67 4 -98 l-15 -22 -645 0 -645 0 17 32
c10 20 14 45 11 70 l-5 38 629 0 c616 0 629 0 649 -20z m-1380 -190 c0 -27 -3
-30 -30 -30 -27 0 -30 3 -30 30 0 27 3 30 30 30 27 0 30 -3 30 -30z m32 -87
c15 -15 28 -30 28 -34 0 -6 -192 -20 -198 -14 -9 8 23 48 51 66 40 25 81 19
119 -18z m103 -98 c122 -36 185 -72 294 -167 153 -135 270 -297 344 -478 42
-101 55 -168 64 -312 5 -86 3 -116 -11 -159 -50 -151 -177 -230 -401 -249
-274 -23 -772 -43 -923 -36 -254 11 -365 39 -525 133 -84 51 -127 100 -147
173 -11 40 -13 90 -4 90 4 0 26 -18 49 -39 50 -46 191 -116 321 -160 294 -99
436 -46 524 196 101 281 99 700 -5 921 l-34 73 26 10 c115 43 287 45 428 4z
m1750 -25 c39 -15 75 -59 75 -93 0 -28 -147 -327 -162 -327 -4 0 -23 16 -44
35 -20 19 -55 40 -78 45 -22 6 -47 13 -54 16 -16 5 127 288 160 317 23 19 63
22 103 7z m-2198 -70 c81 -161 106 -443 63 -695 -43 -251 -97 -362 -205 -417
-62 -32 -197 -22 -340 26 -127 42 -271 110 -334 157 -38 29 -42 36 -38 63 15
88 107 261 233 437 81 113 247 284 357 368 91 69 202 133 222 128 6 -1 25 -32
42 -67z m1636 -116 c29 -15 103 -53 165 -86 l113 -60 -29 -18 c-42 -26 -71
-67 -78 -112 -5 -30 -11 -38 -28 -38 -33 0 -284 138 -302 166 -24 36 -10 90
36 136 21 21 45 38 54 38 9 0 40 -12 69 -26z m402 -207 c43 -43 52 -79 34
-131 -26 -75 -118 -109 -182 -67 -77 51 -85 147 -16 206 24 19 42 25 81 25 43
0 54 -4 83 -33z m222 -119 c86 -45 165 -90 175 -100 22 -22 24 -78 3 -118 -18
-35 -61 -70 -86 -70 -10 0 -87 36 -171 80 -84 44 -156 80 -160 80 -17 0 -7 17
21 33 39 23 64 78 59 133 -2 24 -2 44 -1 44 2 0 73 -37 160 -82z m-440 -39 c7
-18 10 -35 8 -39 -3 -4 -46 -36 -97 -71 -176 -120 -446 -318 -501 -369 l-56
-52 5 79 c5 69 -6 174 -32 294 -5 24 -2 27 58 42 396 104 566 147 583 147 14
0 24 -10 32 -31z m58 -65 c13 -8 43 -17 67 -19 23 -1 44 -7 46 -13 1 -5 -32
-76 -76 -158 -86 -164 -103 -182 -167 -170 -50 10 -105 63 -105 102 1 51 83
184 142 231 29 23 57 42 61 43 4 0 19 -7 32 -16z"/>
<path d="M1760 1498 c-66 -25 -145 -101 -180 -173 -20 -42 -25 -65 -25 -140 0
-77 4 -98 27 -147 32 -70 96 -133 168 -167 46 -22 69 -26 140 -26 71 0 94 4
141 26 69 33 129 91 166 161 25 47 28 64 28 148 0 84 -3 102 -28 152 -35 71
-110 140 -183 167 -74 28 -180 27 -254 -1z m263 -21 c65 -30 126 -89 158 -155
19 -38 24 -64 24 -132 0 -73 -4 -93 -28 -142 -118 -239 -458 -235 -577 7 -34
69 -35 187 -2 260 75 165 263 237 425 162z"/>
<path d="M1845 1459 c-64 -12 -92 -26 -139 -69 -92 -85 -117 -212 -63 -323 50
-101 132 -151 247 -152 65 0 82 4 130 30 66 36 114 97 136 172 55 190 -116
378 -311 342z m162 -33 c90 -46 138 -128 138 -236 0 -64 -4 -82 -27 -122 -94
-159 -306 -181 -424 -44 -118 138 -63 345 110 413 42 17 163 11 203 -11z"/>
<path d="M1831 458 l-1 -57 254 -3 c254 -3 255 -3 280 -27 36 -34 36 -88 0
-122 l-26 -24 -961 -3 c-943 -2 -963 -2 -994 18 -57 34 -57 106 0 140 30 18
51 20 280 20 l247 0 0 36 c0 21 -4 33 -10 29 -5 -3 -10 -17 -10 -31 l0 -24
-240 0 c-195 0 -247 -3 -270 -15 -36 -19 -50 -43 -50 -87 0 -41 20 -71 57 -87
21 -8 282 -11 995 -9 l968 3 27 28 c38 38 38 96 0 134 l-27 28 -249 3 -248 3
-10 52 -10 52 -2 -57z"/>
</g>
</svg>
