<?xml version="1.0" standalone="no"?>
<!DOCTYPE svg PUBLIC "-//W3C//DTD SVG 20010904//EN"
 "http://www.w3.org/TR/2001/REC-SVG-20010904/DTD/svg10.dtd">
<svg version="1.0" xmlns="http://www.w3.org/2000/svg"
 width="297.000000pt" height="252.000000pt" viewBox="0 0 297.000000 252.000000"
 preserveAspectRatio="xMidYMid meet">

<g transform="translate(0.000000,252.000000) scale(0.100000,-0.100000)"
fill="#000000" stroke="none">
<path d="M1359 2330 c-105 -26 -224 -91 -255 -137 -26 -40 -33 -88 -21 -135 6
-24 11 -70 11 -103 1 -55 3 -61 28 -73 37 -17 55 -80 35 -119 -10 -19 -12 -35
-6 -52 5 -13 7 -32 4 -42 -3 -10 2 -33 11 -51 16 -30 16 -33 -1 -43 -10 -5
-29 -19 -44 -30 -14 -12 -39 -26 -54 -33 -18 -8 -35 -27 -45 -53 -16 -38 -19
-40 -47 -32 -16 4 -67 8 -112 8 -73 0 -84 -3 -107 -24 -14 -14 -26 -30 -26
-37 0 -9 -8 -9 -31 3 -19 10 -42 13 -64 9 -38 -7 -85 -41 -85 -61 0 -8 -28
-20 -72 -30 -275 -67 -384 -136 -428 -270 -16 -46 -17 -149 -2 -185 12 -31 93
-73 174 -90 l58 -11 -29 -25 c-47 -39 -81 -118 -81 -186 0 -144 103 -250 245
-251 72 0 118 18 174 68 38 35 41 36 41 15 0 -73 60 -164 132 -201 113 -58
262 -18 323 85 13 23 42 59 64 81 l41 39 0 -30 c0 -43 46 -129 88 -164 41 -33
110 -60 157 -60 51 0 127 27 167 60 20 17 48 54 62 83 14 28 39 65 56 81 27
26 30 27 30 9 0 -45 34 -115 77 -158 68 -69 163 -91 254 -60 61 21 112 65 141
122 13 27 38 62 56 79 l31 32 7 -37 c14 -78 65 -145 139 -184 56 -30 164 -30
221 0 49 26 98 80 119 130 21 49 19 149 -4 199 -20 44 -82 110 -112 119 -36
12 -21 40 32 65 29 14 72 47 98 76 81 88 89 163 39 350 l-32 119 -1 360 c0
325 -2 364 -18 400 -47 104 -120 136 -324 143 -126 4 -143 7 -148 22 -10 32
-66 79 -114 95 -114 39 -461 39 -575 0 -46 -16 -44 -17 -71 37 -11 23 -32 50
-46 60 -29 22 -109 31 -160 18z m125 -55 c13 -9 31 -30 41 -48 17 -32 17 -33
-9 -71 -23 -35 -46 -94 -46 -122 0 -8 -16 -8 -52 -3 -32 5 -88 4 -143 -3 -148
-18 -138 -20 -152 37 -7 28 -11 62 -7 77 11 55 92 109 214 142 61 17 119 13
154 -9z m553 -65 c56 -5 119 -16 140 -25 l38 -17 -94 -24 -94 -23 -27 29 c-15
16 -39 32 -54 36 -51 12 -149 -2 -226 -35 -91 -37 -147 -81 -170 -133 -15 -33
-19 -37 -30 -23 -10 12 -10 27 -1 72 18 89 49 113 171 133 41 6 82 13 90 15
33 6 160 4 257 -5z m-89 -85 c16 -13 35 -38 42 -55 11 -27 10 -32 -13 -59 -13
-16 -30 -52 -36 -78 l-12 -49 -92 4 c-54 2 -122 -2 -164 -11 l-72 -14 -11 33
c-39 116 0 173 154 230 86 32 165 32 204 -1z m317 5 c10 -11 16 -23 12 -26 -3
-3 -39 -10 -79 -14 -40 -5 -86 -13 -101 -19 -41 -16 -54 -14 -60 9 -4 17 3 22
47 35 48 14 125 31 152 34 6 1 19 -8 29 -19z m355 -80 c19 -7 39 -16 43 -20 4
-3 -32 -17 -79 -29 -48 -12 -114 -36 -146 -53 -153 -81 -237 -255 -238 -487
l0 -94 -117 -146 c-212 -264 -342 -378 -506 -441 -89 -35 -283 -84 -301 -77
-8 3 -15 34 -18 84 -7 91 -36 180 -79 242 -40 57 -30 64 19 12 21 -23 43 -41
48 -41 22 1 37 21 43 56 6 39 7 39 63 48 55 8 58 7 104 -28 58 -44 94 -47 124
-9 12 15 24 40 27 55 6 32 37 42 133 43 64 0 65 0 75 32 6 18 25 48 41 65 17
18 41 48 53 66 12 17 29 32 36 32 19 0 45 40 45 70 0 14 -7 38 -15 54 -8 15
-15 54 -15 86 0 50 3 60 25 74 47 31 59 60 45 114 -6 26 -23 62 -36 80 -26 34
-27 51 -3 129 13 41 59 70 141 88 81 18 435 15 488 -5z m-1145 -64 c17 -7 36
-20 43 -28 11 -14 7 -15 -31 -11 -32 4 -60 -2 -108 -21 -85 -35 -226 -47 -252
-22 -9 10 -17 26 -17 36 0 36 26 48 117 55 49 3 93 8 98 10 17 7 118 -6 150
-19z m1274 -39 c19 -38 25 -67 29 -147 l5 -100 -54 0 c-145 0 -292 -81 -449
-246 l-72 -77 7 104 c21 292 126 438 359 499 39 11 89 18 110 17 37 -2 42 -6
65 -50z m-1239 -32 c51 -26 53 -93 3 -114 -28 -11 -200 -62 -280 -83 -44 -12
-73 -1 -73 26 0 29 140 136 215 164 66 25 98 26 135 7z m-263 -60 c-34 -30
-43 -31 -50 -6 -7 26 0 31 42 31 l36 -1 -28 -24z m689 -14 c61 -28 61 -38 1
-38 -35 0 -73 -8 -114 -26 -51 -22 -78 -27 -146 -27 -88 0 -107 8 -107 46 0
32 21 44 92 53 119 16 229 12 274 -8z m-386 -61 c0 -13 12 -28 30 -38 36 -20
59 -85 41 -114 -13 -21 -7 -146 8 -161 19 -19 12 -34 -19 -47 -17 -7 -34 -18
-38 -24 -4 -6 -19 -17 -35 -24 -23 -10 -59 -54 -70 -86 -2 -5 -32 -3 -69 4
-64 13 -66 14 -52 34 8 11 14 27 14 34 0 8 11 23 25 34 14 11 36 39 50 63 15
24 36 46 49 49 37 9 51 47 36 98 -7 24 -15 71 -17 106 -4 53 -2 66 14 77 25
20 33 18 33 -5z m437 -22 c26 -24 31 -69 9 -87 -18 -15 -269 -93 -317 -99 -51
-6 -70 19 -42 56 26 35 146 117 198 136 62 22 124 20 152 -6z m-527 -34 c0
-39 4 -38 -80 -9 l-35 13 25 10 c28 11 59 19 78 21 7 1 12 -12 12 -35z m250
-14 c-43 -36 -46 -36 -52 -6 -5 22 -1 25 31 29 20 2 40 4 46 5 5 1 -6 -11 -25
-28z m-329 -20 c35 -11 75 -29 89 -40 l25 -20 -65 0 c-36 0 -92 -7 -125 -15
-80 -19 -82 -19 -110 10 -41 40 -33 60 28 72 79 15 90 15 158 -7z m1391 -107
c-2 -54 -7 -101 -11 -104 -3 -3 -28 -14 -56 -24 -38 -14 -71 -39 -135 -104
-99 -101 -168 -210 -213 -338 -28 -78 -31 -101 -32 -199 l0 -112 -50 -6 c-222
-25 -926 -29 -941 -5 -3 5 5 9 18 9 47 0 216 51 293 90 149 73 268 185 480
455 169 214 271 314 388 376 82 44 130 58 202 58 l61 1 -4 -97z m-852 1 c0
-34 -2 -36 -26 -30 -15 4 -41 13 -58 20 l-31 13 50 15 c28 9 53 16 58 17 4 1
7 -15 7 -35z m-439 16 c21 -12 26 -52 7 -67 -23 -18 -61 -22 -204 -24 -82 -1
-148 2 -159 8 -17 10 -14 13 21 31 92 47 287 77 335 52z m340 -46 c54 -16 129
-53 129 -63 0 -3 -33 -7 -73 -7 -39 -1 -98 -8 -131 -17 l-59 -16 -28 29 c-30
30 -38 58 -16 64 6 2 35 8 62 14 28 5 53 10 56 11 3 0 30 -6 60 -15z m-600
-86 c69 -37 124 -95 113 -121 -14 -36 -49 -30 -163 28 -118 60 -142 83 -115
109 26 27 95 20 165 -16z m189 12 c0 -5 -14 -25 -31 -45 l-32 -36 -31 29 c-17
16 -42 36 -56 45 -24 16 -22 17 63 17 49 0 87 -4 87 -10z m528 -26 c27 -19 29
-60 3 -73 -22 -12 -346 -19 -358 -8 -27 28 170 90 302 96 17 0 41 -6 53 -15z
m831 -107 c-1 -114 9 -191 38 -302 18 -69 32 -175 24 -175 -3 0 -59 107 -123
238 l-117 237 42 39 c36 33 104 73 129 75 4 1 7 -50 7 -112z m-1811 56 c62
-17 109 -54 128 -100 20 -47 18 -57 -18 -71 -29 -11 -36 -9 -100 33 -47 29
-94 49 -144 61 -64 15 -74 21 -74 40 0 59 79 73 208 37z m82 19 c0 -5 23 -19
50 -32 53 -25 56 -30 44 -102 -9 -50 -20 -48 -27 4 -4 33 -15 52 -46 81 -40
37 -51 57 -31 57 6 0 10 -4 10 -8z m-340 -73 c39 -22 110 -119 110 -151 0 -10
-7 -21 -16 -25 -12 -4 -33 12 -73 55 -31 34 -78 71 -105 85 l-49 24 24 16 c31
23 64 21 109 -4z m982 -25 c48 -25 118 -88 118 -109 0 -18 -22 -35 -46 -35
-30 0 -215 95 -237 122 -18 22 -18 23 4 41 29 23 92 16 161 -19z m-502 22 c0
-11 -19 -15 -25 -6 -3 5 1 10 9 10 9 0 16 -2 16 -4z m690 -8 c0 -7 -14 -27
-32 -45 l-31 -32 -31 27 c-17 15 -43 35 -56 44 -24 17 -23 17 63 17 61 1 87
-3 87 -11z m-1006 -40 c26 -10 27 -12 10 -19 -35 -14 -66 -9 -85 14 -10 12
-18 25 -19 29 0 7 48 -5 94 -24z m1765 -65 c24 -54 79 -165 122 -248 63 -118
76 -152 67 -161 -13 -12 -142 -55 -205 -68 -31 -7 -31 -7 -42 46 -12 55 -96
310 -113 341 -7 14 -2 30 24 70 36 57 86 117 97 117 4 0 27 -44 50 -97z
m-1359 70 c0 -5 -15 -15 -33 -23 -17 -8 -37 -25 -42 -37 -10 -20 -25 -19 -53
2 -1 1 2 14 7 28 7 17 19 27 38 30 50 7 83 7 83 0z m-613 -38 c22 -19 24 -24
11 -25 -26 0 -83 37 -66 43 22 9 26 8 55 -18z m901 -24 c45 -23 48 -31 36
-103 -7 -42 -24 -42 -24 0 0 34 -31 86 -65 108 -14 9 -25 23 -25 32 0 14 2 14
18 0 9 -9 36 -25 60 -37z m-159 25 c29 -8 70 -26 91 -39 59 -40 90 -128 55
-157 -13 -11 -24 -7 -68 20 -103 65 -137 81 -199 94 -60 12 -63 14 -63 42 0
52 75 68 184 40z m-835 -20 c43 -18 109 -77 135 -121 l20 -34 -52 -29 c-102
-57 -166 -154 -167 -249 0 -63 10 -61 -168 -33 -149 23 -224 44 -243 67 -23
27 -17 149 10 203 50 97 109 134 284 179 133 35 138 35 181 17z m417 -17 c43
-30 38 -56 -13 -69 -24 -6 -72 -19 -108 -30 -36 -10 -72 -20 -81 -22 -11 -2
-30 16 -53 51 -43 63 -39 82 5 28 47 -57 99 -47 99 19 0 28 4 33 28 37 64 10
95 6 123 -14z m154 -9 c37 0 135 -120 135 -166 0 -52 -32 -41 -85 29 -24 32
-56 57 -96 77 -32 17 -59 33 -59 36 0 9 65 33 78 29 8 -3 20 -5 27 -5z m505
-20 c0 -5 -4 -10 -9 -10 -6 0 -13 5 -16 10 -3 6 1 10 9 10 9 0 16 -4 16 -10z
m-330 -40 c45 -18 44 -22 -11 -34 -20 -4 -30 1 -48 24 -19 27 -20 30 -4 29 10
0 38 -8 63 -19z m1196 -200 c40 -115 67 -210 60 -217 -1 -2 -52 -11 -112 -21
-78 -14 -111 -16 -116 -8 -14 21 -8 133 11 209 11 42 37 111 57 154 l37 78 9
-35 c5 -19 30 -91 54 -160z m-1385 161 c13 -11 21 -23 17 -27 -8 -7 -75 24
-84 39 -11 16 45 6 67 -12z m-104 -16 c57 -24 102 -63 137 -119 52 -80 67
-138 73 -273 l6 -123 -25 0 c-93 0 -493 53 -580 77 -79 21 -93 40 -92 122 1
124 68 218 187 260 58 20 226 67 250 70 4 1 24 -6 44 -14z m1793 -324 c0 -19
-67 -75 -117 -98 -80 -37 -372 -90 -588 -108 -194 -16 -669 -10 -821 10 l-42
6 10 42 c5 23 10 43 12 44 2 2 15 -1 29 -6 63 -24 282 -32 597 -22 334 11 483
26 670 67 89 20 225 60 248 73 1 0 2 -3 2 -8z m-2394 -64 c10 -10 -9 -57 -23
-57 -54 0 -113 -70 -113 -135 0 -135 167 -184 252 -75 28 35 98 59 98 34 0
-27 -39 -91 -74 -121 -130 -115 -340 -30 -354 141 -7 88 29 162 103 208 27 17
96 20 111 5z m106 -39 l26 -28 -45 -63 c-52 -71 -93 -117 -105 -117 -23 0 -2
104 46 237 7 18 48 3 78 -29z m-127 -72 c-19 -61 -29 -152 -18 -159 5 -3 36 0
69 8 32 8 66 14 74 14 27 0 -47 -58 -83 -64 -70 -13 -147 49 -147 118 0 62 51
125 102 127 14 0 15 -4 3 -44z m278 5 l67 -17 -32 -32 c-25 -24 -50 -35 -103
-46 -39 -8 -90 -22 -114 -30 -58 -21 -59 -21 -29 12 14 15 44 53 67 85 32 44
47 57 59 51 10 -4 47 -14 85 -23z m1950 -78 c-27 -148 -40 -178 -58 -135 -8
17 -45 186 -42 188 7 6 103 30 108 28 4 -2 0 -39 -8 -81z m-1744 41 c12 -10
-13 -52 -36 -61 l-28 -12 27 6 27 5 -14 -51 c-21 -79 -28 -148 -16 -155 5 -4
40 0 76 9 82 19 78 19 65 -5 -24 -44 -108 -64 -160 -37 -33 17 -70 74 -70 109
0 33 13 61 43 98 15 17 11 15 -11 -5 -53 -51 -56 -125 -6 -184 56 -67 169 -59
214 15 12 19 25 34 30 34 4 0 22 3 39 6 26 6 31 3 31 -13 0 -10 -13 -40 -29
-64 -72 -114 -220 -138 -321 -52 -95 82 -107 217 -26 308 42 47 80 65 125 58
20 -3 38 -7 40 -9z m1626 -22 c0 -19 -11 -27 -65 -46 -36 -13 -136 -54 -224
-90 -87 -36 -160 -66 -163 -66 -2 0 26 33 62 74 61 67 75 76 149 104 88 34
164 51 211 49 24 -2 30 -6 30 -25z m-1467 3 c11 -11 -160 -225 -180 -225 -14
0 -8 70 11 128 43 125 33 115 104 107 34 -3 63 -8 65 -10z m1664 -25 c117 -97
98 -287 -37 -357 -109 -57 -243 -15 -295 92 -24 50 -30 138 -12 172 12 21 139
79 150 68 4 -3 -6 -16 -21 -27 -38 -28 -57 -69 -57 -122 0 -36 6 -52 31 -81
109 -123 293 2 222 152 -9 19 -22 37 -30 40 -14 5 -17 33 -7 71 8 29 12 28 56
-8z m-1410 9 c84 -6 154 -12 156 -14 8 -8 -40 -84 -55 -89 -10 -3 -94 -19
-188 -37 -93 -17 -200 -41 -237 -53 -54 -18 -64 -19 -55 -6 166 221 155 210
192 210 19 0 103 -5 187 -11z m978 7 c0 -2 -7 -6 -15 -10 -8 -3 -15 -1 -15 4
0 6 7 10 15 10 8 0 15 -2 15 -4z m-175 -106 c-55 -55 -103 -100 -107 -100 -17
0 -7 50 23 118 34 77 35 78 134 81 l50 1 -100 -100z m-502 82 c15 -6 3 -22
-71 -95 -49 -48 -95 -87 -102 -87 -17 0 -8 41 29 123 l30 67 48 -1 c26 0 56
-4 66 -7z m409 -29 c-18 -35 -24 -38 -123 -65 -106 -29 -396 -98 -414 -98 -5
0 24 34 65 75 50 51 88 80 119 91 46 17 162 29 299 32 l72 2 -18 -37z m523
-50 c11 -58 32 -103 49 -103 21 0 43 36 51 83 9 46 19 47 45 5 26 -43 25 -87
-3 -129 -27 -40 -60 -59 -105 -59 -114 0 -167 151 -78 222 30 24 33 23 41 -19z
m-555 -9 c0 -3 -7 -27 -16 -55 -18 -53 -14 -79 11 -79 9 0 48 14 87 30 39 17
73 29 75 26 2 -2 -3 -20 -11 -40 -27 -66 -111 -95 -176 -61 -44 23 -77 98 -61
139 8 22 91 58 91 40z m314 -48 c-20 -32 -34 -33 -34 -3 0 15 8 28 23 34 28
13 33 1 11 -31z m-894 -2 c-12 -32 -13 -71 -1 -78 5 -3 44 2 88 13 43 10 79
15 81 10 6 -14 -30 -60 -59 -75 -64 -33 -148 -3 -175 62 -26 63 -10 89 58 93
15 1 16 -3 8 -25z m474 -3 c-9 -43 27 -116 68 -137 82 -43 177 -4 200 81 10
35 18 47 41 55 43 15 47 13 47 -17 0 -119 -99 -215 -220 -215 -114 0 -200 79
-216 196 l-6 43 38 11 c22 5 42 10 46 11 4 1 5 -12 2 -28z m-561 -31 c7 -57
31 -89 83 -111 37 -17 50 -18 85 -9 47 13 85 47 95 84 6 25 11 28 67 40 28 7
29 6 22 -26 -24 -112 -106 -180 -215 -180 -97 0 -182 62 -209 151 -21 73 -14
87 45 90 18 1 22 -6 27 -39z m407 16 c0 -3 -4 -8 -10 -11 -5 -3 -10 -1 -10 4
0 6 5 11 10 11 6 0 10 -2 10 -4z"/>
</g>
</svg>
