<?xml version="1.0" standalone="no"?>
<!DOCTYPE svg PUBLIC "-//W3C//DTD SVG 20010904//EN"
 "http://www.w3.org/TR/2001/REC-SVG-20010904/DTD/svg10.dtd">
<svg version="1.0" xmlns="http://www.w3.org/2000/svg"
 width="633.000000pt" height="394.000000pt" viewBox="0 0 633.000000 394.000000"
 preserveAspectRatio="xMidYMid meet">

<g transform="translate(0.000000,394.000000) scale(0.100000,-0.100000)"
fill="#000000" stroke="none">
<path d="M2338 3933 c18 -2 45 -2 60 0 15 2 0 4 -33 4 -33 0 -45 -2 -27 -4z"/>
<path d="M3513 3797 c-28 -56 -54 -113 -58 -126 -7 -23 -7 -22 -32 12 -32 45
-104 84 -190 103 -83 18 -513 33 -968 33 -492 1 -701 -18 -823 -74 l-56 -26
24 28 c14 15 17 21 7 14 -10 -8 -27 -27 -38 -42 l-20 -28 35 14 c56 24 56 17
0 -13 -55 -28 -115 -90 -179 -182 -21 -30 -50 -71 -64 -89 -14 -19 -20 -31
-12 -26 11 6 13 4 6 -11 -40 -94 -58 -185 -59 -294 -1 -165 19 -195 165 -244
174 -58 440 -62 607 -10 116 37 159 114 169 304 17 327 -131 553 -390 593
l-72 11 65 10 c90 13 1092 12 1330 -2 189 -10 306 -28 366 -54 51 -22 104 -60
104 -74 0 -8 -58 -137 -129 -287 -71 -149 -139 -296 -151 -325 -13 -29 -24
-51 -26 -49 -2 2 1 43 7 91 20 167 -24 360 -110 482 -78 110 -164 165 -290
185 -174 27 -322 -50 -426 -221 -81 -134 -139 -391 -117 -520 13 -72 28 -98
74 -133 35 -26 134 -66 171 -69 12 -1 0 -4 -28 -8 -46 -7 -45 -7 17 -5 37 1
65 -1 63 -5 -13 -21 222 -17 369 6 67 11 149 43 188 75 21 16 38 28 38 26 0
-2 -21 -48 -46 -101 -27 -58 -50 -95 -57 -92 -36 15 -119 37 -129 34 -6 -2 14
-10 45 -17 49 -11 57 -16 57 -35 0 -27 -109 -196 -197 -307 -76 -95 -103 -108
-250 -121 -148 -12 -598 -7 -613 8 -7 7 3 37 35 102 55 115 103 190 169 267
73 85 26 47 -77 -63 -81 -86 -107 -121 -217 -295 -24 -38 -56 -75 -72 -83 -54
-28 -181 -34 -474 -24 -290 10 -371 19 -411 46 -27 17 -27 22 19 127 49 113
103 200 196 317 34 42 24 35 -41 -32 -47 -47 -119 -138 -161 -201 -104 -155
-109 -159 -198 -165 -94 -5 -366 14 -442 32 -32 8 -71 23 -87 35 l-28 21 -17
-25 c-9 -14 -15 -27 -13 -28 26 -17 91 -39 144 -48 l65 -12 -38 -17 c-54 -24
-96 -71 -133 -147 -29 -58 -33 -76 -35 -157 l-2 -91 7 90 c16 192 116 314 259
315 65 0 115 -24 166 -81 49 -54 75 -114 91 -208 7 -42 13 -64 14 -50 4 94
-47 218 -116 285 l-48 47 110 -7 c177 -11 194 -15 236 -53 22 -20 37 -38 35
-42 -2 -3 30 -6 72 -6 43 0 253 -4 467 -9 342 -7 392 -10 404 -25 13 -15 13
-15 8 1 -9 27 94 106 146 112 58 7 357 16 357 11 0 -3 -17 -13 -37 -24 -52
-27 -143 -125 -143 -155 0 -6 13 10 28 35 85 133 233 180 366 115 101 -49 166
-162 166 -286 0 -86 -23 -151 -76 -214 -145 -174 -419 -109 -490 117 -7 23
-13 33 -13 22 -2 -69 107 -201 195 -235 l49 -19 -50 -2 c-27 -1 -39 -4 -26 -6
25 -5 256 23 311 37 35 10 35 10 -7 5 l-42 -5 55 55 c62 62 100 135 110 212
13 107 -57 253 -152 312 l-45 29 83 6 c46 4 95 9 109 12 21 4 28 0 34 -18 13
-40 17 -369 6 -468 -17 -151 -20 -210 -10 -176 4 16 14 91 21 167 11 125 14
138 32 143 12 3 56 26 100 50 l79 45 -7 -52 c-20 -152 -71 -283 -134 -339 -50
-45 -102 -74 -102 -56 0 7 -5 6 -12 -4 -7 -9 -20 -18 -28 -22 -8 -3 -1 -3 15
0 60 11 95 38 231 173 196 196 329 274 518 307 98 17 149 6 242 -54 78 -51
250 -199 340 -294 169 -178 247 -478 124 -478 -35 0 -75 44 -148 164 -99 161
-285 304 -440 335 -195 40 -352 -32 -472 -215 -59 -90 -84 -172 -110 -349 -11
-77 -28 -171 -37 -210 l-18 -69 -93 -40 c-50 -22 -94 -37 -97 -35 -2 3 1 21 7
41 13 44 6 77 -27 117 -51 60 -126 62 -187 4 -52 -50 -45 -142 13 -186 29 -21
30 -21 7 -30 -31 -11 -296 -57 -332 -57 l-30 0 44 47 c25 26 -3 2 -62 -53 -80
-74 -102 -100 -88 -102 27 -5 295 35 434 64 162 34 334 85 435 128 46 20 86
35 88 33 8 -9 -37 -94 -63 -119 -42 -39 -146 -85 -259 -113 -54 -14 -100 -27
-102 -28 -6 -7 35 -113 72 -186 44 -89 104 -171 142 -199 72 -51 80 -52 474
-52 352 0 371 1 426 21 118 45 232 198 294 397 22 70 24 72 55 72 18 0 90 6
161 14 70 8 184 16 252 18 l124 3 18 -52 c28 -83 107 -228 146 -268 67 -69 71
-70 430 -73 365 -4 410 2 492 62 95 70 186 243 207 391 11 83 19 95 59 95 30
0 66 11 83 25 2 2 -3 16 -11 32 -8 15 -20 71 -26 123 -18 146 -39 253 -76 396
-38 145 -42 181 -21 209 13 18 10 23 -32 54 -58 42 -191 105 -254 120 -113 27
-259 6 -357 -52 -173 -102 -263 -267 -331 -607 -34 -174 -51 -220 -96 -259
-65 -57 -257 -95 -449 -89 l-100 3 -7 75 c-3 41 -5 76 -4 77 1 2 71 12 155 23
164 22 239 36 259 49 7 4 24 68 37 143 14 75 36 176 50 224 52 183 174 389
296 498 84 75 98 79 294 79 179 0 310 -15 360 -40 53 -27 175 -125 231 -186
30 -33 58 -57 61 -54 3 3 -27 37 -66 75 -39 38 -68 72 -64 76 3 3 63 6 132 6
l126 0 -2 250 c-1 138 -5 255 -8 260 -9 15 -218 13 -233 -2 -9 -9 -12 -79 -12
-255 0 -238 0 -243 -20 -243 -12 0 -45 18 -75 41 -30 22 -75 47 -101 55 -66
20 -303 37 -405 30 l-87 -7 -7 200 -7 200 60 68 c113 127 287 326 385 441 73
85 97 121 97 142 0 30 -3 34 -278 382 -171 217 -107 184 -482 248 -620 106
-844 142 -1070 175 -284 40 -286 41 -293 18 -3 -10 -57 -128 -120 -263 -63
-135 -164 -351 -224 -480 -61 -129 -120 -258 -133 -287 l-22 -52 -42 32 c-22
17 -42 32 -44 33 -2 1 36 83 83 183 47 100 85 183 85 185 0 2 24 55 54 117 29
63 97 205 150 317 53 112 96 205 96 207 0 2 23 51 51 110 27 59 48 109 46 111
-2 2 -26 -42 -54 -99z m-1980 -64 c-7 -2 -19 -2 -25 0 -7 3 -2 5 12 5 14 0 19
-2 13 -5z m128 -43 c181 -34 301 -166 345 -380 30 -148 3 -347 -55 -409 -119
-127 -688 -115 -814 17 -47 49 -58 150 -31 280 32 158 99 286 198 384 100 99
217 134 357 108z m1183 -48 c126 -59 215 -177 257 -341 16 -62 19 -102 17
-218 -2 -79 -5 -138 -7 -131 -2 6 -11 -8 -20 -33 -49 -133 -340 -193 -641
-133 -90 18 -196 69 -224 106 -24 34 -35 141 -23 242 13 113 70 273 126 353
102 145 198 196 357 189 77 -3 102 -8 158 -34z m1016 -26 c374 -51 422 -60
441 -75 29 -25 28 -11 94 -960 14 -195 24 -356 22 -357 -2 -2 -1447 -10 -1447
-8 0 1 26 18 57 39 31 21 78 57 103 81 l47 44 26 -20 c24 -19 40 -20 550 -20
500 0 525 1 541 19 16 18 15 48 -19 539 -30 446 -41 549 -61 580 -1 2 -114 19
-251 37 -196 26 -253 30 -273 21 -25 -11 -85 -131 -209 -418 -125 -286 -157
-345 -223 -411 -56 -55 -81 -95 -102 -161 -4 -12 -10 -16 -16 -10 -11 11 21
87 207 489 71 154 149 323 173 375 114 249 108 240 138 240 15 0 106 -11 202
-24z m715 -107 c110 -17 309 -50 443 -74 209 -36 245 -45 258 -64 8 -11 77
-95 152 -185 236 -282 262 -316 262 -338 0 -11 -21 -46 -47 -76 -27 -30 -70
-81 -98 -113 -127 -147 -302 -348 -342 -391 l-44 -48 -364 0 -365 0 0 30 c0
17 -11 184 -25 373 -14 188 -32 443 -41 567 -16 228 -25 310 -39 344 -7 16 -4
18 21 12 16 -3 119 -20 229 -37z m-755 -14 c25 -3 122 -14 215 -26 94 -11 176
-26 182 -32 18 -17 87 -1041 72 -1068 -9 -18 -30 -19 -532 -19 -512 0 -547 2
-547 30 0 3 15 4 33 2 20 -2 49 6 80 21 40 21 57 24 115 19 113 -8 417 60 509
114 27 15 45 34 49 50 10 40 -3 131 -23 167 -16 27 -28 34 -77 44 -90 18 -271
33 -390 33 -83 0 -107 3 -103 13 3 6 22 50 43 97 133 308 238 538 252 553 12
13 25 17 47 13 16 -3 50 -8 75 -11z m-104 -686 c60 -6 127 -15 149 -20 36 -8
35 -8 -15 -4 -30 3 -138 7 -240 11 -240 7 -225 14 -269 -136 -9 -30 -10 -26
-6 31 4 73 20 116 44 122 33 9 231 7 337 -4z m-799 -621 c9 -7 13 -39 12 -112
-2 -97 -12 -146 -31 -146 -5 0 -16 -7 -24 -15 -8 -8 -21 -12 -30 -8 -9 3 -14
0 -12 -8 2 -7 -5 -15 -16 -17 -13 -3 -16 0 -12 10 4 7 -1 3 -10 -9 -9 -13 -25
-23 -35 -23 -15 0 -19 8 -19 38 -1 65 -18 266 -25 284 -6 14 1 18 37 21 61 6
149 -2 165 -15z m2238 10 c2 -7 6 -97 8 -201 l6 -187 -37 -16 c-46 -19 -148
-117 -217 -209 -58 -78 -75 -87 -233 -120 -121 -25 -109 -47 -115 203 l-5 217
-61 154 c-34 85 -61 156 -61 158 0 1 91 4 203 6 111 1 271 3 355 5 115 1 154
-1 157 -10z m-1637 -105 c7 -60 12 -115 12 -123 0 -11 -14 -15 -59 -17 -170
-6 -358 -98 -533 -262 l-66 -62 18 49 c35 93 54 220 54 374 l1 148 281 0 281
0 11 -107z m969 -56 l61 -162 4 -215 3 -215 -150 0 c-83 0 -184 6 -226 14
l-76 13 -46 63 c-47 63 -233 237 -338 316 -30 22 -80 54 -111 70 -39 19 -59
37 -63 52 -5 24 -25 194 -25 215 0 9 97 12 453 12 l452 0 62 -163z m-808 -791
c41 -21 96 -87 130 -154 51 -100 65 -172 65 -322 0 -150 -14 -222 -65 -321
-70 -139 -172 -197 -272 -155 -78 32 -164 167 -192 301 -19 90 -19 260 0 349
28 131 102 258 174 296 43 23 121 26 160 6z m1906 -61 c69 -40 120 -121 150
-236 21 -79 16 -277 -8 -354 -40 -125 -135 -225 -215 -225 -111 0 -206 111
-238 277 -44 232 19 460 150 538 53 32 107 32 161 0z m-2931 -326 c15 -12 26
-30 26 -45 0 -13 4 -24 9 -24 10 0 7 -53 -4 -70 -4 -6 -11 -7 -17 -4 -7 5 -9
1 -5 -9 4 -11 1 -17 -9 -17 -8 0 -17 -7 -20 -15 -4 -9 -19 -15 -41 -15 -110 0
-160 118 -81 192 38 35 102 39 142 7z"/>
<path d="M1716 3390 c-69 -21 -125 -109 -126 -196 0 -125 71 -214 170 -214
149 0 229 203 135 340 -42 60 -116 89 -179 70z m-6 -98 c45 -36 1 -99 -50 -72
-24 13 -26 52 -4 74 20 20 27 20 54 -2z m138 -210 c2 -7 -3 -12 -12 -12 -9 0
-16 7 -16 16 0 17 22 14 28 -4z"/>
<path d="M2775 3321 c-65 -40 -95 -100 -95 -188 0 -70 25 -129 69 -166 117
-98 270 -4 271 166 0 89 -37 159 -102 193 -38 20 -107 17 -143 -5z m45 -76
c30 -36 -16 -88 -58 -66 -25 13 -31 31 -21 59 10 26 59 31 79 7z m120 -211 c0
-16 -16 -19 -25 -4 -8 13 4 32 16 25 5 -4 9 -13 9 -21z"/>
<path d="M4436 3387 c-15 -21 -13 -69 17 -521 30 -455 35 -500 52 -512 15 -11
79 -14 315 -14 l296 0 89 107 c50 59 147 175 218 257 70 82 127 158 127 168 0
30 -354 415 -388 422 -15 3 -166 28 -337 56 -170 27 -324 52 -342 55 -26 5
-35 1 -47 -18z m400 -67 l339 -50 50 -53 c91 -96 310 -347 310 -356 0 -5 -96
-122 -213 -260 l-213 -251 -293 0 -294 0 -6 63 c-3 34 -15 206 -26 382 -12
176 -25 374 -29 440 -5 66 -7 123 -4 128 7 11 21 10 379 -43z"/>
<path d="M4620 1880 c0 -6 88 -10 245 -10 157 0 245 4 245 10 0 6 -88 10 -245
10 -157 0 -245 -4 -245 -10z"/>
<path d="M3752 1914 c9 -9 718 -40 718 -32 0 5 -21 8 -47 8 -27 0 -174 7 -328
15 -316 16 -351 17 -343 9z"/>
<path d="M3562 934 c-23 -16 -52 -64 -52 -86 0 -7 9 6 19 29 56 123 162 55
162 -103 0 -139 -79 -212 -145 -133 -29 34 -36 27 -8 -7 29 -36 58 -47 89 -32
60 29 91 124 73 220 -20 105 -79 154 -138 112z"/>
<path d="M3501 775 c0 -33 4 -69 8 -80 5 -12 7 9 4 50 -6 91 -11 105 -12 30z"/>
<path d="M5527 930 c62 -25 76 -198 21 -257 -30 -32 -61 -29 -92 8 -14 17 -26
26 -26 21 0 -20 50 -62 75 -62 62 0 105 102 84 200 -12 55 -42 100 -67 99 -13
0 -11 -3 5 -9z"/>
<path d="M5435 889 c-4 -6 -5 -12 -2 -15 2 -3 7 2 10 11 7 17 1 20 -8 4z"/>
<path d="M5421 844 c0 -11 3 -14 6 -6 3 7 2 16 -1 19 -3 4 -6 -2 -5 -13z"/>
<path d="M5412 785 c0 -16 2 -22 5 -12 2 9 2 23 0 30 -3 6 -5 -1 -5 -18z"/>
<path d="M5421 734 c0 -11 3 -14 6 -6 3 7 2 16 -1 19 -3 4 -6 -2 -5 -13z"/>
<path d="M1485 3838 l-50 -53 53 50 c48 46 57 55 49 55 -1 0 -25 -24 -52 -52z"/>
<path d="M5410 3455 c13 -14 26 -25 28 -25 3 0 -5 11 -18 25 -13 14 -26 25
-28 25 -3 0 5 -11 18 -25z"/>
<path d="M5470 3397 c0 -2 15 -16 33 -33 l32 -29 -29 33 c-28 30 -36 37 -36
29z"/>
<path d="M1046 3273 c-42 -60 -64 -94 -49 -76 33 37 135 183 129 183 -3 0 -39
-48 -80 -107z"/>
<path d="M5620 3226 c0 -2 8 -10 18 -17 15 -13 16 -12 3 4 -13 16 -21 21 -21
13z"/>
<path d="M953 3148 c-43 -57 -66 -91 -58 -86 12 7 78 98 72 98 -3 0 -9 -6 -14
-12z"/>
<path d="M5720 3106 c0 -2 8 -10 18 -17 15 -13 16 -12 3 4 -13 16 -21 21 -21
13z"/>
<path d="M814 2958 c-37 -51 -71 -99 -77 -105 -5 -7 -7 -13 -4 -13 3 0 29 33
58 73 29 39 63 87 77 105 13 17 22 32 19 32 -3 0 -36 -42 -73 -92z"/>
<path d="M678 2772 c-44 -57 -44 -59 -19 -54 14 3 20 7 13 10 -8 2 -1 20 24
53 50 68 37 61 -18 -9z"/>
<path d="M1233 2783 c42 -2 112 -2 155 0 42 1 7 3 -78 3 -85 0 -120 -2 -77 -3z"/>
<path d="M1963 2783 c37 -2 97 -2 135 0 37 2 6 3 -68 3 -74 0 -105 -1 -67 -3z"/>
<path d="M1017 2773 c18 -2 50 -2 70 0 21 2 7 4 -32 4 -38 0 -55 -2 -38 -4z"/>
<path d="M2223 2773 c20 -2 54 -2 75 0 20 2 3 4 -38 4 -41 0 -58 -2 -37 -4z"/>
<path d="M903 2763 c15 -2 37 -2 50 0 12 2 0 4 -28 4 -27 0 -38 -2 -22 -4z"/>
<path d="M813 2753 c9 -2 25 -2 35 0 9 3 1 5 -18 5 -19 0 -27 -2 -17 -5z"/>
<path d="M748 2743 c6 -2 18 -2 25 0 6 3 1 5 -13 5 -14 0 -19 -2 -12 -5z"/>
<path d="M698 2733 c6 -2 18 -2 25 0 6 3 1 5 -13 5 -14 0 -19 -2 -12 -5z"/>
<path d="M2673 2733 c9 -2 25 -2 35 0 9 3 1 5 -18 5 -19 0 -27 -2 -17 -5z"/>
<path d="M2743 2723 c9 -2 23 -2 30 0 6 3 -1 5 -18 5 -16 0 -22 -2 -12 -5z"/>
<path d="M2798 2713 c6 -2 18 -2 25 0 6 3 1 5 -13 5 -14 0 -19 -2 -12 -5z"/>
<path d="M534 2674 c-18 -14 -18 -14 6 -3 31 14 36 19 24 19 -6 0 -19 -7 -30
-16z"/>
<path d="M309 2523 c-13 -16 -12 -17 4 -4 9 7 17 15 17 17 0 8 -8 3 -21 -13z"/>
<path d="M5973 2435 c-57 -47 -103 -88 -103 -91 0 -9 21 6 115 84 111 92 111
92 100 92 -6 0 -56 -39 -112 -85z"/>
<path d="M6162 2475 c0 -16 2 -22 5 -12 2 9 2 23 0 30 -3 6 -5 -1 -5 -18z"/>
<path d="M244 2468 l-19 -23 23 19 c21 18 27 26 19 26 -2 0 -12 -10 -23 -22z"/>
<path d="M5607 2425 c-130 -46 -157 -206 -49 -295 130 -107 322 38 261 197
-31 81 -130 128 -212 98z m118 -19 c88 -37 86 -182 -5 -243 -39 -27 -116 -31
-160 -8 -40 21 -65 89 -51 141 28 103 119 150 216 110z"/>
<path d="M6152 2370 c0 -14 2 -19 5 -12 2 6 2 18 0 25 -3 6 -5 1 -5 -13z"/>
<path d="M129 2353 l-24 -28 28 24 c15 14 27 26 27 28 0 8 -8 1 -31 -24z"/>
<path d="M6141 2304 c0 -11 3 -14 6 -6 3 7 2 16 -1 19 -3 4 -6 -2 -5 -13z"/>
<path d="M6131 2244 c0 -11 3 -14 6 -6 3 7 2 16 -1 19 -3 4 -6 -2 -5 -13z"/>
<path d="M62 2220 c0 -14 2 -19 5 -12 2 6 2 18 0 25 -3 6 -5 1 -5 -13z"/>
<path d="M54 1990 c0 -80 2 -112 3 -72 2 39 2 105 0 145 -1 39 -3 7 -3 -73z"/>
<path d="M5350 1990 c-52 -43 -96 -84 -99 -92 -2 -7 12 1 30 18 19 16 67 56
107 88 39 31 72 59 72 61 0 13 -23 -3 -110 -75z"/>
<path d="M1781 2004 c0 -11 3 -14 6 -6 3 7 2 16 -1 19 -3 4 -6 -2 -5 -13z"/>
<path d="M802 1985 c0 -16 2 -22 5 -12 2 9 2 23 0 30 -3 6 -5 -1 -5 -18z"/>
<path d="M2086 1965 c-3 -9 -6 -24 -5 -33 0 -9 5 -4 10 12 9 32 6 48 -5 21z"/>
<path d="M1791 1894 c0 -11 3 -14 6 -6 3 7 2 16 -1 19 -3 4 -6 -2 -5 -13z"/>
<path d="M2073 1860 c0 -30 2 -43 4 -27 2 15 2 39 0 55 -2 15 -4 2 -4 -28z"/>
<path d="M803 1845 c0 -27 2 -38 4 -22 2 15 2 37 0 50 -2 12 -4 0 -4 -28z"/>
<path d="M1785 1811 c-5 -24 -12 -31 -38 -34 -29 -3 -28 -4 8 -5 39 -2 40 -1
42 33 2 43 -3 45 -12 6z"/>
<path d="M587 1792 c-11 -63 -44 -126 -91 -173 -51 -52 -96 -72 -161 -72 -82
0 -145 42 -209 137 -14 21 -26 36 -26 32 0 -14 50 -93 70 -111 11 -10 18 -21
15 -25 -9 -15 210 -68 237 -57 7 3 0 6 -17 7 l-30 2 30 10 c46 17 83 46 126
100 39 49 74 142 67 176 -2 9 -7 -2 -11 -26z"/>
<path d="M63 1755 c0 -22 2 -30 4 -17 2 12 2 30 0 40 -3 9 -5 -1 -4 -23z"/>
<path d="M81 1774 c0 -11 3 -14 6 -6 3 7 2 16 -1 19 -3 4 -6 -2 -5 -13z"/>
<path d="M798 1783 c23 -2 61 -2 85 0 23 2 4 4 -43 4 -47 0 -66 -2 -42 -4z"/>
<path d="M1463 1783 c26 -2 68 -2 95 0 26 2 4 3 -48 3 -52 0 -74 -1 -47 -3z"/>
<path d="M705 1748 c-20 -17 -65 -68 -100 -113 -76 -97 -85 -105 -128 -115
-30 -7 -30 -8 -5 -9 35 -1 73 32 153 134 35 46 80 95 97 109 18 14 30 26 26
26 -4 0 -24 -14 -43 -32z"/>
<path d="M1864 1723 c30 -27 94 -83 142 -125 47 -43 94 -78 103 -78 8 0 2 8
-16 18 -17 9 -74 57 -127 105 -101 94 -140 127 -151 127 -3 0 19 -21 49 -47z"/>
<path d="M72 1660 c0 -14 2 -19 5 -12 2 6 2 18 0 25 -3 6 -5 1 -5 -13z"/>
<path d="M828 1673 c17 -2 47 -2 65 0 17 2 3 4 -33 4 -36 0 -50 -2 -32 -4z"/>
<path d="M1428 1673 c28 -2 76 -2 105 0 28 2 5 3 -53 3 -58 0 -81 -1 -52 -3z"/>
<path d="M769 1653 c-13 -16 -12 -17 4 -4 9 7 17 15 17 17 0 8 -8 3 -21 -13z"/>
<path d="M1673 1663 c9 -2 23 -2 30 0 6 3 -1 5 -18 5 -16 0 -22 -2 -12 -5z"/>
<path d="M1777 1628 c21 -17 68 -59 104 -92 36 -34 23 -19 -29 32 -53 50 -99
92 -104 92 -5 0 8 -14 29 -32z"/>
<path d="M80 1619 c0 -7 80 -42 86 -37 1 2 -17 13 -42 24 -24 11 -44 17 -44
13z"/>
<path d="M710 1580 c-23 -27 -40 -50 -37 -50 3 0 24 23 47 50 23 28 40 50 37
50 -3 0 -24 -22 -47 -50z"/>
<path d="M1118 1583 c6 -2 18 -2 25 0 6 3 1 5 -13 5 -14 0 -19 -2 -12 -5z"/>
<path d="M2620 1580 c-20 -6 -21 -8 -5 -8 11 0 31 4 45 8 20 6 21 8 5 8 -11 0
-31 -4 -45 -8z"/>
<path d="M1403 1573 c26 -2 67 -2 90 0 23 2 2 3 -48 3 -49 0 -68 -1 -42 -3z"/>
<path d="M1705 1563 c11 -3 29 -12 40 -22 20 -16 20 -16 1 7 -11 12 -29 21
-40 21 -20 -1 -20 -2 -1 -6z"/>
<path d="M6178 1563 c12 -2 30 -2 40 0 9 3 -1 5 -23 4 -22 0 -30 -2 -17 -4z"/>
<path d="M6252 1561 c-11 -7 -11 -9 2 -14 10 -4 16 -1 16 8 0 17 -1 17 -18 6z"/>
<path d="M6098 1553 c6 -2 18 -2 25 0 6 3 1 5 -13 5 -14 0 -19 -2 -12 -5z"/>
<path d="M100 1486 c0 -22 -8 -40 -26 -57 -34 -31 -74 -115 -74 -155 0 -97
110 -216 199 -213 21 0 18 3 -16 13 -61 19 -99 50 -123 102 -19 37 -22 57 -17
106 3 37 13 71 25 87 28 39 81 71 116 71 34 0 110 -32 138 -57 10 -9 18 -11
18 -6 0 13 -67 73 -81 73 -6 0 -8 4 -5 9 9 13 -35 19 -93 11 -44 -6 -51 -4
-51 11 0 10 5 19 12 21 7 3 6 7 -5 11 -14 5 -17 0 -17 -27z"/>
<path d="M613 1465 c-43 -48 -55 -55 -89 -56 -25 -1 -31 -3 -15 -6 42 -8 67 6
115 62 61 71 54 71 -11 0z"/>
<path d="M2148 1513 c12 -2 32 -2 45 0 12 2 2 4 -23 4 -25 0 -35 -2 -22 -4z"/>
<path d="M278 1453 c7 -3 16 -2 19 1 4 3 -2 6 -13 5 -11 0 -14 -3 -6 -6z"/>
<path d="M1982 1425 c21 -22 39 -37 41 -34 2 2 -15 19 -37 38 l-41 35 37 -39z"/>
<path d="M318 1443 c7 -3 16 -2 19 1 4 3 -2 6 -13 5 -11 0 -14 -3 -6 -6z"/>
<path d="M2598 1443 c6 -2 18 -2 25 0 6 3 1 5 -13 5 -14 0 -19 -2 -12 -5z"/>
<path d="M358 1433 c7 -3 16 -2 19 1 4 3 -2 6 -13 5 -11 0 -14 -3 -6 -6z"/>
<path d="M2548 1433 c6 -2 18 -2 25 0 6 3 1 5 -13 5 -14 0 -19 -2 -12 -5z"/>
<path d="M398 1423 c7 -3 16 -2 19 1 4 3 -2 6 -13 5 -11 0 -14 -3 -6 -6z"/>
<path d="M2483 1423 c9 -2 23 -2 30 0 6 3 -1 5 -18 5 -16 0 -22 -2 -12 -5z"/>
<path d="M438 1413 c6 -2 18 -2 25 0 6 3 1 5 -13 5 -14 0 -19 -2 -12 -5z"/>
<path d="M2393 1413 c9 -2 25 -2 35 0 9 3 1 5 -18 5 -19 0 -27 -2 -17 -5z"/>
<path d="M2288 1403 c12 -2 30 -2 40 0 9 3 -1 5 -23 4 -22 0 -30 -2 -17 -4z"/>
<path d="M2148 1393 c18 -2 45 -2 60 0 15 2 0 4 -33 4 -33 0 -45 -2 -27 -4z"/>
<path d="M2450 1393 c-26 -10 -70 -44 -70 -54 0 -5 13 -3 30 6 41 21 123 19
168 -4 48 -25 76 -55 101 -111 37 -82 23 -164 -36 -209 -41 -30 -5 -26 41 5
42 29 66 75 66 127 0 84 -65 189 -141 227 -37 19 -124 26 -159 13z"/>
<path d="M1753 1320 c0 -30 2 -43 4 -27 2 15 2 39 0 55 -2 15 -4 2 -4 -28z"/>
<path d="M781 1304 c0 -11 3 -14 6 -6 3 7 2 16 -1 19 -3 4 -6 -2 -5 -13z"/>
<path d="M226 1262 c-3 -5 8 -6 25 -4 16 2 29 6 29 8 0 8 -49 4 -54 -4z"/>
<path d="M848 1253 c18 -2 45 -2 60 0 15 2 0 4 -33 4 -33 0 -45 -2 -27 -4z"/>
<path d="M2563 1253 c9 -2 25 -2 35 0 9 3 1 5 -18 5 -19 0 -27 -2 -17 -5z"/>
<path d="M1148 1243 c28 -2 76 -2 105 0 28 2 5 3 -53 3 -58 0 -81 -1 -52 -3z"/>
<path d="M2468 1243 c6 -2 18 -2 25 0 6 3 1 5 -13 5 -14 0 -19 -2 -12 -5z"/>
<path d="M408 1233 c7 -3 16 -2 19 1 4 3 -2 6 -13 5 -11 0 -14 -3 -6 -6z"/>
<path d="M1518 1233 c28 -2 76 -2 105 0 28 2 5 3 -53 3 -58 0 -81 -1 -52 -3z"/>
<path d="M2408 1233 c7 -3 16 -2 19 1 4 3 -2 6 -13 5 -11 0 -14 -3 -6 -6z"/>
<path d="M2338 1223 c7 -3 16 -2 19 1 4 3 -2 6 -13 5 -11 0 -14 -3 -6 -6z"/>
<path d="M2268 1213 c7 -3 16 -2 19 1 4 3 -2 6 -13 5 -11 0 -14 -3 -6 -6z"/>
<path d="M230 1206 c0 -2 8 -10 18 -17 15 -13 16 -12 3 4 -13 16 -21 21 -21
13z"/>
<path d="M558 1203 c7 -3 16 -2 19 1 4 3 -2 6 -13 5 -11 0 -14 -3 -6 -6z"/>
<path d="M2188 1203 c6 -2 18 -2 25 0 6 3 1 5 -13 5 -14 0 -19 -2 -12 -5z"/>
<path d="M618 1193 c7 -3 16 -2 19 1 4 3 -2 6 -13 5 -11 0 -14 -3 -6 -6z"/>
<path d="M2108 1193 c6 -2 18 -2 25 0 6 3 1 5 -13 5 -14 0 -19 -2 -12 -5z"/>
<path d="M688 1183 c7 -3 16 -2 19 1 4 3 -2 6 -13 5 -11 0 -14 -3 -6 -6z"/>
<path d="M2013 1183 c9 -2 23 -2 30 0 6 3 -1 5 -18 5 -16 0 -22 -2 -12 -5z"/>
<path d="M768 1173 c7 -3 16 -2 19 1 4 3 -2 6 -13 5 -11 0 -14 -3 -6 -6z"/>
<path d="M1903 1173 c9 -2 25 -2 35 0 9 3 1 5 -18 5 -19 0 -27 -2 -17 -5z"/>
<path d="M2538 1169 c-34 -19 -302 -90 -449 -120 -352 -69 -597 -95 -824 -85
-322 14 -628 79 -888 190 -32 14 -21 0 80 -101 96 -96 250 -286 292 -361 6
-10 17 -7 52 12 145 81 366 71 437 -19 l21 -26 21 21 c57 57 204 85 311 60 91
-21 179 -74 220 -132 l21 -28 -89 -41 c-48 -23 -110 -50 -138 -60 -27 -11 -36
-17 -20 -13 47 9 197 78 298 137 108 64 303 202 367 260 233 211 360 346 288
306z"/>
<path d="M2611 1153 c-10 -26 -10 -27 4 -9 8 11 15 23 15 28 0 15 -7 8 -19
-19z"/>
<path d="M863 1163 c9 -2 23 -2 30 0 6 3 -1 5 -18 5 -16 0 -22 -2 -12 -5z"/>
<path d="M1768 1163 c12 -2 30 -2 40 0 9 3 -1 5 -23 4 -22 0 -30 -2 -17 -4z"/>
<path d="M290 1135 c13 -14 26 -25 28 -25 3 0 -5 11 -18 25 -13 14 -26 25 -28
25 -3 0 5 -11 18 -25z"/>
<path d="M988 1153 c12 -2 32 -2 45 0 12 2 2 4 -23 4 -25 0 -35 -2 -22 -4z"/>
<path d="M1583 1153 c15 -2 39 -2 55 0 15 2 2 4 -28 4 -30 0 -43 -2 -27 -4z"/>
<path d="M1273 1143 c9 -2 23 -2 30 0 6 3 -1 5 -18 5 -16 0 -22 -2 -12 -5z"/>
<path d="M2580 1100 c-6 -11 -8 -20 -6 -20 3 0 10 9 16 20 6 11 8 20 6 20 -3
0 -10 -9 -16 -20z"/>
<path d="M320 1097 c0 -2 15 -16 33 -33 l32 -29 -29 33 c-28 30 -36 37 -36 29z"/>
<path d="M94 965 c0 -49 1 -71 3 -48 2 23 2 64 0 90 -2 26 -3 8 -3 -42z"/>
<path d="M2529 1023 c-13 -16 -12 -17 4 -4 9 7 17 15 17 17 0 8 -8 3 -21 -13z"/>
<path d="M380 1026 c0 -2 8 -10 18 -17 15 -13 16 -12 3 4 -13 16 -21 21 -21
13z"/>
<path d="M2499 983 c-13 -16 -12 -17 4 -4 16 13 21 21 13 21 -2 0 -10 -8 -17
-17z"/>
<path d="M2464 938 l-19 -23 23 19 c21 18 27 26 19 26 -2 0 -12 -10 -23 -22z"/>
<path d="M2419 883 l-24 -28 28 24 c15 14 27 26 27 28 0 8 -8 1 -31 -24z"/>
<path d="M100 828 c0 -50 9 -72 33 -85 163 -85 252 -125 352 -157 66 -21 127
-41 136 -46 14 -7 12 4 -9 65 -15 40 -29 69 -32 64 -13 -19 -362 114 -447 171
l-33 22 0 -34z"/>
<path d="M500 840 c6 -11 13 -20 16 -20 2 0 0 9 -6 20 -6 11 -13 20 -16 20 -2
0 0 -9 6 -20z"/>
<path d="M2364 818 l-29 -33 33 29 c17 17 32 31 32 33 0 8 -8 1 -36 -29z"/>
<path d="M2295 738 l-40 -43 43 40 c39 36 47 45 39 45 -2 0 -21 -19 -42 -42z"/>
<path d="M830 577 c0 -2 15 -16 33 -33 l32 -29 -29 33 c-28 30 -36 37 -36 29z"/>
<path d="M380 485 c0 -22 49 -154 87 -233 42 -86 100 -155 157 -185 40 -22 49
-22 401 -22 354 0 361 0 405 23 51 25 119 84 145 124 l17 28 -42 -15 c-96 -34
-211 -48 -350 -42 -237 10 -354 62 -470 209 -21 26 -40 45 -43 42 -6 -7 -179
39 -254 66 -44 16 -53 17 -53 5z"/>
<path d="M954 476 c11 -9 24 -16 30 -16 12 0 7 5 -24 19 -24 11 -24 11 -6 -3z"/>
<path d="M1030 444 c19 -9 51 -18 70 -20 31 -4 30 -3 -10 9 -83 25 -95 27 -60
11z"/>
<path d="M1528 453 c7 -3 16 -2 19 1 4 3 -2 6 -13 5 -11 0 -14 -3 -6 -6z"/>
<path d="M1450 438 c-19 -5 -98 -13 -175 -17 l-140 -8 107 -1 c93 -2 251 18
266 33 8 7 -17 5 -58 -7z"/>
</g>
</svg>
